<svg width="61" height="60" viewBox="0 0 61 60" fill="none" xmlns="http://www.w3.org/2000/svg">
<g filter="url(#filter0_d_423_583)">
<rect x="10" y="8" width="40.0556" height="40" rx="10" fill="white"/>
</g>
<g clip-path="url(#clip0_423_583)">
<path d="M31.3224 23.4267C30.2691 23.4267 29.4158 24.28 29.4158 25.3333C29.4158 26.3867 30.2691 27.24 31.3224 27.24C32.3758 27.24 33.2291 26.3867 33.2291 25.3333C33.2291 24.28 32.3758 23.4267 31.3224 23.4267Z" fill="#00B9AE"/>
<path d="M31.3224 16C26.3224 16 22.2558 19.92 22.0158 24.8533L19.4558 28.2667C19.1224 28.7067 19.4424 29.3333 19.9891 29.3333H21.9891V33.3333C21.9891 34.8 23.1891 36 24.6558 36H25.9891V40H35.3224V33.76C38.4691 32.2667 40.6558 29.0533 40.6558 25.3333C40.6558 20.1733 36.4824 16 31.3224 16ZM35.3224 25.3333C35.3224 25.5067 35.3091 25.68 35.2958 25.8533L36.4024 26.7333C36.5091 26.8133 36.5358 26.9467 36.4691 27.0667L35.4024 28.92C35.3358 29.04 35.1891 29.08 35.0824 29.04L33.7624 28.5067C33.4824 28.72 33.1891 28.8933 32.8691 29.0267L32.6558 30.44C32.6424 30.5733 32.5224 30.6667 32.3891 30.6667H30.2558C30.1224 30.6667 30.0158 30.5733 29.9891 30.44L29.7891 29.0267C29.4558 28.8933 29.1624 28.72 28.8824 28.5067L27.5624 29.04C27.4424 29.08 27.2958 29.04 27.2291 28.92L26.1624 27.0667C26.0958 26.96 26.1224 26.8133 26.2291 26.7333L27.3491 25.8533C27.3358 25.68 27.3224 25.5067 27.3224 25.3333C27.3224 25.16 27.3491 24.9733 27.3758 24.8133L26.2424 23.9333C26.1358 23.8533 26.1091 23.72 26.1758 23.5867L27.2424 21.7467C27.3091 21.6267 27.4424 21.5867 27.5624 21.6267L28.8958 22.16C29.1624 21.96 29.4691 21.7733 29.7891 21.64L29.9891 20.2267C30.0158 20.0933 30.1224 20 30.2558 20H32.3891C32.5224 20 32.6291 20.0933 32.6558 20.2267L32.8558 21.64C33.1758 21.7733 33.4691 21.9467 33.7491 22.16L35.0824 21.6267C35.2024 21.5867 35.3491 21.6267 35.4024 21.7467L36.4691 23.5867C36.5358 23.7067 36.5091 23.8533 36.4024 23.9333L35.2691 24.8133C35.3091 24.9733 35.3224 25.1467 35.3224 25.3333Z" fill="#00B9AE"/>
</g>
<defs>
<filter id="filter0_d_423_583" x="0" y="0" width="60.0557" height="60" filterUnits="userSpaceOnUse" color-interpolation-filters="sRGB">
<feFlood flood-opacity="0" result="BackgroundImageFix"/>
<feColorMatrix in="SourceAlpha" type="matrix" values="0 0 0 0 0 0 0 0 0 0 0 0 0 0 0 0 0 0 127 0" result="hardAlpha"/>
<feOffset dy="2"/>
<feGaussianBlur stdDeviation="5"/>
<feComposite in2="hardAlpha" operator="out"/>
<feColorMatrix type="matrix" values="0 0 0 0 0 0 0 0 0 0 0 0 0 0 0 0 0 0 0.1 0"/>
<feBlend mode="normal" in2="BackgroundImageFix" result="effect1_dropShadow_423_583"/>
<feBlend mode="normal" in="SourceGraphic" in2="effect1_dropShadow_423_583" result="shape"/>
</filter>
<clipPath id="clip0_423_583">
<rect width="32" height="32" fill="white" transform="translate(13.989 12)"/>
</clipPath>
</defs>
</svg>
