<svg width="41" height="40" viewBox="0 0 41 40" fill="none" xmlns="http://www.w3.org/2000/svg">
<rect width="40.0556" height="40" rx="10" fill="white"/>
<g clip-path="url(#clip0_547_579)">
<path d="M31.9889 10.6667C30.5089 10.2 28.8823 10 27.3223 10C24.7223 10 21.9223 10.5333 19.9889 12C18.0556 10.5333 15.2556 10 12.6556 10C10.0556 10 7.2556 10.5333 5.32227 12V31.5333C5.32227 31.8667 5.6556 32.2 5.98893 32.2C6.12227 32.2 6.18893 32.1333 6.32227 32.1333C8.12227 31.2667 10.7223 30.6667 12.6556 30.6667C15.2556 30.6667 18.0556 31.2 19.9889 32.6667C21.7889 31.5333 25.0556 30.6667 27.3223 30.6667C29.5223 30.6667 31.7889 31.0667 33.6556 32.0667C33.7889 32.1333 33.8556 32.1333 33.9889 32.1333C34.3223 32.1333 34.6556 31.8 34.6556 31.4667V12C33.8556 11.4 32.9889 11 31.9889 10.6667ZM31.9889 28.6667C30.5223 28.2 28.9223 28 27.3223 28C25.0556 28 21.7889 28.8667 19.9889 30V14.6667C21.7889 13.5333 25.0556 12.6667 27.3223 12.6667C28.9223 12.6667 30.5223 12.8667 31.9889 13.3333V28.6667Z" fill="#00B9AE"/>
<path d="M27.3223 18C28.4956 18 29.6289 18.12 30.6556 18.3467V16.32C29.6023 16.12 28.4689 16 27.3223 16C25.0556 16 23.0023 16.3867 21.3223 17.1067V19.32C22.8289 18.4667 24.9223 18 27.3223 18Z" fill="#00B9AE"/>
<path d="M21.3223 20.6533V22.8667C22.8289 22.0133 24.9223 21.5467 27.3223 21.5467C28.4956 21.5467 29.6289 21.6667 30.6556 21.8933V19.8667C29.6023 19.6667 28.4689 19.5467 27.3223 19.5467C25.0556 19.5467 23.0023 19.9467 21.3223 20.6533Z" fill="#00B9AE"/>
<path d="M27.3223 23.1067C25.0556 23.1067 23.0023 23.4933 21.3223 24.2133V26.4267C22.8289 25.5733 24.9223 25.1067 27.3223 25.1067C28.4956 25.1067 29.6289 25.2267 30.6556 25.4533V23.4267C29.6023 23.2133 28.4689 23.1067 27.3223 23.1067Z" fill="#00B9AE"/>
</g>
<defs>
<clipPath id="clip0_547_579">
<rect width="32" height="32" fill="white" transform="translate(3.98901 4)"/>
</clipPath>
</defs>
</svg>
