<svg width="308" height="125" viewBox="0 0 308 125" fill="none" xmlns="http://www.w3.org/2000/svg">
<path opacity="0.2" d="M14.375 23.25C14.375 20.1771 14.2188 17.6771 13.9062 15.75C13.6458 13.8229 13.099 12.3125 12.2656 11.2188C11.4323 10.125 10.2604 9.39583 8.75 9.03125C7.29167 8.61458 5.39062 8.40625 3.04688 8.40625H0.15625V4.73438C2.44792 4.63021 4.58333 4.5 6.5625 4.34375C8.54167 4.13542 10.5469 3.875 12.5781 3.5625C14.6615 3.25 16.849 2.85938 19.1406 2.39062C21.4323 1.92188 24.0104 1.32292 26.875 0.59375C26.6667 2.57292 26.4323 5.04688 26.1719 8.01562C25.9115 10.9844 25.625 14.2656 25.3125 17.8594C25.0521 21.4531 24.7656 25.2812 24.4531 29.3438C24.1406 33.4062 23.8542 37.5208 23.5938 41.6875C23.3333 45.8021 23.0729 49.9167 22.8125 54.0312C22.6042 58.0938 22.4219 61.9219 22.2656 65.5156C25.1302 63.1719 27.8125 61.1667 30.3125 59.5C32.8646 57.7812 35.3125 56.375 37.6562 55.2812C40.0521 54.1354 42.4219 53.3021 44.7656 52.7812C47.1094 52.2083 49.5312 51.9219 52.0312 51.9219C53.6458 51.9219 55.4688 52.1823 57.5 52.7031C59.5833 53.1719 61.5365 54.1615 63.3594 55.6719C65.1823 57.1823 66.7188 59.3177 67.9688 62.0781C69.2708 64.7865 69.9219 68.3802 69.9219 72.8594C69.9219 75.776 69.7917 78.8229 69.5312 82C69.3229 85.1771 69.0625 88.3281 68.75 91.4531C68.4896 94.526 68.2292 97.5208 67.9688 100.438C67.7604 103.302 67.6562 105.906 67.6562 108.25C67.6562 110.281 67.8125 111.948 68.125 113.25C68.4896 114.5 69.0365 115.516 69.7656 116.297C70.5469 117.026 71.5365 117.521 72.7344 117.781C73.9323 118.042 75.3906 118.172 77.1094 118.172H81.4062V122C78.6979 122.104 76.1719 122.182 73.8281 122.234C71.4844 122.339 69.2448 122.469 67.1094 122.625C64.974 122.781 62.8906 122.99 60.8594 123.25C58.8802 123.562 56.875 124.005 54.8438 124.578C55.3125 121.557 55.8073 118.146 56.3281 114.344C56.849 110.542 57.3177 106.714 57.7344 102.859C58.2031 98.9531 58.5677 95.151 58.8281 91.4531C59.0885 87.7552 59.2188 84.5 59.2188 81.6875C59.2188 78.9792 59.0885 76.3229 58.8281 73.7188C58.6198 71.1146 58.0208 68.7969 57.0312 66.7656C56.0938 64.6823 54.6354 63.0156 52.6562 61.7656C50.6771 60.5156 47.9427 59.8906 44.4531 59.8906C42.474 59.8906 40.4167 60.2552 38.2812 60.9844C36.1979 61.7135 34.1667 62.625 32.1875 63.7188C30.2083 64.8125 28.3333 66.0365 26.5625 67.3906C24.8438 68.7448 23.3594 70.0469 22.1094 71.2969C21.9531 73.7969 21.7969 76.4271 21.6406 79.1875C21.5365 81.8958 21.4583 84.6042 21.4062 87.3125C21.3542 89.9688 21.3021 92.5729 21.25 95.125C21.25 97.625 21.25 99.9688 21.25 102.156C21.25 105.542 21.3281 108.276 21.4844 110.359C21.6927 112.443 22.1094 114.083 22.7344 115.281C23.4115 116.479 24.401 117.286 25.7031 117.703C27.0052 118.12 28.776 118.328 31.0156 118.328H34.8438V122C32.0312 122 29.4271 122.026 27.0312 122.078C24.6354 122.182 22.3438 122.339 20.1562 122.547C18.0208 122.755 15.9635 123.016 13.9844 123.328C12.0573 123.693 10.1562 124.109 8.28125 124.578C9.01042 117.339 9.66146 110.177 10.2344 103.094C10.8594 95.9583 11.4062 89.0833 11.875 82.4688C12.3438 75.8021 12.7344 69.474 13.0469 63.4844C13.3594 57.4427 13.6198 51.8698 13.8281 46.7656C14.0365 41.6615 14.1667 37.1302 14.2188 33.1719C14.3229 29.1615 14.375 25.8542 14.375 23.25ZM87.8906 109.812C87.8906 106.74 88.6719 104.083 90.2344 101.844C91.849 99.6042 93.9062 97.6771 96.4062 96.0625C98.9583 94.4479 101.797 93.1198 104.922 92.0781C108.047 91.0365 111.172 90.2031 114.297 89.5781C117.422 88.9531 120.365 88.5104 123.125 88.25C125.938 87.9375 128.229 87.7292 130 87.625C130.26 85.2812 130.417 83.0156 130.469 80.8281C130.573 78.6406 130.625 76.5833 130.625 74.6562C130.625 72.2083 130.443 69.8646 130.078 67.625C129.714 65.3854 129.01 63.4062 127.969 61.6875C126.927 59.9688 125.469 58.6146 123.594 57.625C121.771 56.5833 119.375 56.0625 116.406 56.0625C114.323 56.0625 112.396 56.4531 110.625 57.2344C108.854 58.0156 107.318 59.0833 106.016 60.4375C104.766 61.7396 103.776 63.3021 103.047 65.125C102.37 66.8958 102.031 68.7969 102.031 70.8281C102.031 71.6094 102.083 72.4167 102.188 73.25C102.344 74.0312 102.552 74.8646 102.812 75.75C102.24 76.4271 101.432 76.9479 100.391 77.3125C99.401 77.6771 98.3854 77.8594 97.3438 77.8594C96.5625 77.8594 95.8073 77.7552 95.0781 77.5469C94.349 77.2865 93.6979 76.8958 93.125 76.375C92.5521 75.8542 92.0833 75.1771 91.7188 74.3438C91.4062 73.5104 91.25 72.4948 91.25 71.2969C91.25 68.3802 92.2396 65.724 94.2188 63.3281C96.25 60.9323 98.776 58.901 101.797 57.2344C104.87 55.5156 108.203 54.2135 111.797 53.3281C115.391 52.3906 118.802 51.9219 122.031 51.9219C128.177 51.9219 132.969 53.3281 136.406 56.1406C139.896 58.9531 141.641 63.6146 141.641 70.125C141.641 72.9375 141.51 76.0365 141.25 79.4219C141.042 82.7552 140.781 86.0625 140.469 89.3438C140.156 92.625 139.87 95.75 139.609 98.7188C139.401 101.635 139.297 104.057 139.297 105.984C139.297 109.266 139.688 111.818 140.469 113.641C141.302 115.464 142.552 116.375 144.219 116.375C145.208 116.375 146.198 116.089 147.188 115.516C148.177 114.891 149.115 114.188 150 113.406C150.885 112.573 151.667 111.74 152.344 110.906C153.021 110.021 153.568 109.344 153.984 108.875L156.875 111.297C155.052 113.849 153.359 115.932 151.797 117.547C150.234 119.109 148.75 120.359 147.344 121.297C145.938 122.182 144.583 122.781 143.281 123.094C141.979 123.406 140.703 123.562 139.453 123.562C137.526 123.562 135.859 123.172 134.453 122.391C133.047 121.661 131.875 120.672 130.938 119.422C130.052 118.172 129.349 116.74 128.828 115.125C128.359 113.51 128.099 111.844 128.047 110.125C127.005 111.844 125.781 113.51 124.375 115.125C122.969 116.74 121.328 118.172 119.453 119.422C117.578 120.672 115.443 121.661 113.047 122.391C110.651 123.172 107.969 123.562 105 123.562C101.458 123.562 98.5677 123.094 96.3281 122.156C94.0885 121.271 92.3438 120.151 91.0938 118.797C89.8438 117.391 88.9844 115.88 88.5156 114.266C88.099 112.651 87.8906 111.167 87.8906 109.812ZM109.062 117.859C112.396 117.859 115.234 117.13 117.578 115.672C119.974 114.161 121.953 112.182 123.516 109.734C125.13 107.286 126.406 104.5 127.344 101.375C128.333 98.1979 129.062 94.9427 129.531 91.6094C127.76 91.7656 125.781 91.9479 123.594 92.1562C121.406 92.3646 119.193 92.7031 116.953 93.1719C114.766 93.5885 112.604 94.1875 110.469 94.9688C108.385 95.6979 106.51 96.6615 104.844 97.8594C103.229 99.0573 101.927 100.516 100.938 102.234C99.9479 103.901 99.4531 105.906 99.4531 108.25C99.4531 110.229 99.7656 111.844 100.391 113.094C101.068 114.292 101.901 115.255 102.891 115.984C103.88 116.714 104.922 117.208 106.016 117.469C107.109 117.729 108.125 117.859 109.062 117.859ZM178.047 104.109C178.047 107.078 178.151 109.5 178.359 111.375C178.62 113.25 179.115 114.708 179.844 115.75C180.573 116.74 181.615 117.417 182.969 117.781C184.323 118.146 186.094 118.328 188.281 118.328H191.641V122C189.141 122.104 186.797 122.182 184.609 122.234C182.422 122.286 180.286 122.391 178.203 122.547C176.12 122.703 174.01 122.911 171.875 123.172C169.74 123.484 167.474 123.953 165.078 124.578C165.703 118.12 166.276 111.505 166.797 104.734C167.37 97.9115 167.891 91.1927 168.359 84.5781C168.828 77.9115 169.219 71.4531 169.531 65.2031C169.896 58.9531 170.182 53.1719 170.391 47.8594C170.651 42.4948 170.833 37.7031 170.938 33.4844C171.094 29.2656 171.172 25.8542 171.172 23.25C171.172 20.1771 171.016 17.6771 170.703 15.75C170.391 13.8229 169.818 12.3125 168.984 11.2188C168.151 10.125 166.979 9.39583 165.469 9.03125C164.01 8.61458 162.109 8.40625 159.766 8.40625H156.875V4.73438C159.375 4.63021 161.719 4.47396 163.906 4.26562C166.146 4.00521 168.307 3.71875 170.391 3.40625C172.526 3.04167 174.661 2.625 176.797 2.15625C178.932 1.6875 181.198 1.16667 183.594 0.59375C182.969 7.20833 182.396 14.0312 181.875 21.0625C181.354 28.0938 180.885 35.0469 180.469 41.9219C180.052 48.7969 179.688 55.4635 179.375 61.9219C179.062 68.3281 178.802 74.2656 178.594 79.7344C178.438 85.151 178.307 89.9688 178.203 94.1875C178.099 98.4062 178.047 101.714 178.047 104.109ZM215.859 104.109C215.859 107.078 215.964 109.5 216.172 111.375C216.432 113.25 216.927 114.708 217.656 115.75C218.385 116.74 219.427 117.417 220.781 117.781C222.135 118.146 223.906 118.328 226.094 118.328H229.453V122C226.953 122.104 224.609 122.182 222.422 122.234C220.234 122.286 218.099 122.391 216.016 122.547C213.932 122.703 211.823 122.911 209.688 123.172C207.552 123.484 205.286 123.953 202.891 124.578C203.516 118.12 204.089 111.505 204.609 104.734C205.182 97.9115 205.703 91.1927 206.172 84.5781C206.641 77.9115 207.031 71.4531 207.344 65.2031C207.708 58.9531 207.995 53.1719 208.203 47.8594C208.464 42.4948 208.646 37.7031 208.75 33.4844C208.906 29.2656 208.984 25.8542 208.984 23.25C208.984 20.1771 208.828 17.6771 208.516 15.75C208.203 13.8229 207.63 12.3125 206.797 11.2188C205.964 10.125 204.792 9.39583 203.281 9.03125C201.823 8.61458 199.922 8.40625 197.578 8.40625H194.688V4.73438C197.188 4.63021 199.531 4.47396 201.719 4.26562C203.958 4.00521 206.12 3.71875 208.203 3.40625C210.339 3.04167 212.474 2.625 214.609 2.15625C216.745 1.6875 219.01 1.16667 221.406 0.59375C220.781 7.20833 220.208 14.0312 219.688 21.0625C219.167 28.0938 218.698 35.0469 218.281 41.9219C217.865 48.7969 217.5 55.4635 217.188 61.9219C216.875 68.3281 216.615 74.2656 216.406 79.7344C216.25 85.151 216.12 89.9688 216.016 94.1875C215.911 98.4062 215.859 101.714 215.859 104.109ZM272.188 56.375C268.333 56.375 264.922 57.2344 261.953 58.9531C258.984 60.6719 256.484 62.9635 254.453 65.8281C252.474 68.6927 250.964 72 249.922 75.75C248.88 79.4479 248.359 83.3021 248.359 87.3125C248.359 91.1146 248.828 94.8906 249.766 98.6406C250.703 102.391 252.135 105.776 254.062 108.797C256.042 111.766 258.542 114.188 261.562 116.062C264.635 117.885 268.281 118.797 272.5 118.797C276.25 118.797 279.583 118.094 282.5 116.688C285.417 115.281 287.891 113.276 289.922 110.672C291.953 108.068 293.49 104.891 294.531 101.141C295.625 97.3906 296.172 93.1979 296.172 88.5625C296.172 85.125 295.703 81.5312 294.766 77.7812C293.828 73.9792 292.37 70.4896 290.391 67.3125C288.464 64.1354 285.99 61.5312 282.969 59.5C279.948 57.4167 276.354 56.375 272.188 56.375ZM236.875 91.4531C236.875 86.5052 237.76 81.6615 239.531 76.9219C241.302 72.1823 243.854 67.9635 247.188 64.2656C250.521 60.5677 254.583 57.599 259.375 55.3594C264.167 53.0677 269.609 51.9219 275.703 51.9219C281.484 51.9219 286.406 52.7292 290.469 54.3438C294.531 55.9583 297.839 58.1719 300.391 60.9844C302.943 63.7448 304.792 66.974 305.938 70.6719C307.135 74.3698 307.734 78.3021 307.734 82.4688C307.734 88.0938 306.745 93.4062 304.766 98.4062C302.786 103.406 300.052 107.781 296.562 111.531C293.073 115.229 288.984 118.172 284.297 120.359C279.609 122.495 274.557 123.562 269.141 123.562C262.891 123.562 257.682 122.677 253.516 120.906C249.401 119.083 246.094 116.688 243.594 113.719C241.146 110.75 239.401 107.339 238.359 103.484C237.37 99.6302 236.875 95.6198 236.875 91.4531Z" fill="url(#paint0_linear_7_141)"/>
<defs>
<linearGradient id="paint0_linear_7_141" x1="31.0123" y1="168" x2="316.135" y2="-28.9083" gradientUnits="userSpaceOnUse">
<stop stop-color="#5E60CE"/>
<stop offset="1" stop-color="#80FFDB"/>
</linearGradient>
</defs>
</svg>
