<svg width="270" height="110" viewBox="0 0 270 110" fill="none" xmlns="http://www.w3.org/2000/svg">
<path opacity="0.2" d="M12.5781 20.5938C12.5781 17.9049 12.4414 15.7174 12.168 14.0312C11.9401 12.3451 11.4616 11.0234 10.7324 10.0664C10.0033 9.10938 8.97786 8.47135 7.65625 8.15234C6.38021 7.78776 4.7168 7.60547 2.66602 7.60547H0.136719V4.39258C2.14193 4.30143 4.01042 4.1875 5.74219 4.05078C7.47396 3.86849 9.22852 3.64062 11.0059 3.36719C12.8288 3.09375 14.7428 2.75195 16.748 2.3418C18.7533 1.93164 21.0091 1.40755 23.5156 0.769531C23.3333 2.5013 23.1283 4.66602 22.9004 7.26367C22.6725 9.86133 22.4219 12.7324 22.1484 15.877C21.9206 19.0215 21.6699 22.3711 21.3965 25.9258C21.123 29.4805 20.8724 33.0807 20.6445 36.7266C20.4167 40.3268 20.1888 43.9271 19.9609 47.5273C19.7786 51.082 19.6191 54.4316 19.4824 57.5762C21.9889 55.5254 24.3359 53.7708 26.5234 52.3125C28.7565 50.8086 30.8984 49.5781 32.9492 48.6211C35.0456 47.6185 37.1191 46.8893 39.1699 46.4336C41.2207 45.9323 43.3398 45.6816 45.5273 45.6816C46.9401 45.6816 48.5352 45.9095 50.3125 46.3652C52.1354 46.7754 53.8444 47.6413 55.4395 48.9629C57.0345 50.2845 58.3789 52.153 59.4727 54.5684C60.612 56.9382 61.1816 60.0827 61.1816 64.002C61.1816 66.554 61.0677 69.2201 60.8398 72C60.6576 74.7799 60.4297 77.5371 60.1562 80.2715C59.9284 82.9603 59.7005 85.5807 59.4727 88.1328C59.2904 90.6393 59.1992 92.918 59.1992 94.9688C59.1992 96.7461 59.3359 98.2044 59.6094 99.3438C59.9284 100.438 60.4069 101.326 61.0449 102.01C61.7285 102.648 62.5944 103.081 63.6426 103.309C64.6908 103.536 65.9668 103.65 67.4707 103.65H71.2305V107C68.8607 107.091 66.6504 107.16 64.5996 107.205C62.5488 107.296 60.5892 107.41 58.7207 107.547C56.8522 107.684 55.0293 107.866 53.252 108.094C51.5202 108.367 49.7656 108.755 47.9883 109.256C48.3984 106.613 48.8314 103.628 49.2871 100.301C49.7428 96.974 50.153 93.6243 50.5176 90.252C50.9277 86.834 51.2467 83.5072 51.4746 80.2715C51.7025 77.0358 51.8164 74.1875 51.8164 71.7266C51.8164 69.3568 51.7025 67.0326 51.4746 64.7539C51.2923 62.4753 50.7682 60.4473 49.9023 58.6699C49.082 56.847 47.806 55.3887 46.0742 54.2949C44.3424 53.2012 41.9499 52.6543 38.8965 52.6543C37.1647 52.6543 35.3646 52.9733 33.4961 53.6113C31.6732 54.2493 29.8958 55.0469 28.1641 56.0039C26.4323 56.9609 24.7917 58.0319 23.2422 59.2168C21.7383 60.4017 20.4395 61.541 19.3457 62.6348C19.209 64.8223 19.0723 67.1237 18.9355 69.5391C18.8444 71.9089 18.776 74.2786 18.7305 76.6484C18.6849 78.9727 18.6393 81.2513 18.5938 83.4844C18.5938 85.6719 18.5938 87.7227 18.5938 89.6367C18.5938 92.599 18.6621 94.9915 18.7988 96.8145C18.9811 98.6374 19.3457 100.073 19.8926 101.121C20.485 102.169 21.3509 102.876 22.4902 103.24C23.6296 103.605 25.179 103.787 27.1387 103.787H30.4883V107C28.0273 107 25.7487 107.023 23.6523 107.068C21.556 107.16 19.5508 107.296 17.6367 107.479C15.7682 107.661 13.9681 107.889 12.2363 108.162C10.5501 108.481 8.88672 108.846 7.24609 109.256C7.88411 102.921 8.45378 96.6549 8.95508 90.457C9.50195 84.2135 9.98047 78.1979 10.3906 72.4102C10.8008 66.5768 11.1426 61.0397 11.416 55.7988C11.6895 50.5124 11.9173 45.6361 12.0996 41.1699C12.2819 36.7038 12.3958 32.7389 12.4414 29.2754C12.5326 25.7663 12.5781 22.8724 12.5781 20.5938ZM118.809 71.043C113.932 71.043 109.01 70.8607 104.043 70.4961C99.0755 70.1315 93.903 69.6986 88.5254 69.1973C88.252 71.3392 88.1152 73.39 88.1152 75.3496C88.1608 80.3626 88.7988 84.487 90.0293 87.7227C91.2598 90.9583 92.8776 93.5332 94.8828 95.4473C96.9336 97.3158 99.2578 98.6146 101.855 99.3438C104.453 100.073 107.165 100.438 109.99 100.438C111.768 100.438 113.454 100.324 115.049 100.096C116.689 99.8223 118.33 99.4121 119.971 98.8652C121.611 98.3184 123.275 97.612 124.961 96.7461C126.693 95.8346 128.516 94.7181 130.43 93.3965L132.207 96.0625C127.65 99.9362 123.115 102.967 118.604 105.154C114.137 107.296 109.352 108.367 104.248 108.367C100.146 108.367 96.4551 107.615 93.1738 106.111C89.9382 104.562 87.181 102.511 84.9023 99.959C82.6693 97.3613 80.9375 94.3763 79.707 91.0039C78.5221 87.5859 77.9297 84.0085 77.9297 80.2715C77.9297 75.3952 78.75 70.8607 80.3906 66.668C82.0768 62.4297 84.3327 58.7611 87.1582 55.6621C90.0293 52.5632 93.3333 50.125 97.0703 48.3477C100.807 46.5703 104.727 45.6816 108.828 45.6816C112.975 45.6816 116.416 46.388 119.15 47.8008C121.93 49.168 124.141 50.9453 125.781 53.1328C127.467 55.3203 128.652 57.7357 129.336 60.3789C130.065 62.9766 130.43 65.5059 130.43 67.9668C130.43 68.4681 130.43 68.9238 130.43 69.334C130.43 69.7441 130.384 70.1771 130.293 70.6328C126.328 70.9062 122.5 71.043 118.809 71.043ZM106.436 49.7148C104.111 49.7148 102.015 50.1478 100.146 51.0137C98.3236 51.8796 96.6829 53.0645 95.2246 54.5684C93.8118 56.0267 92.6042 57.7585 91.6016 59.7637C90.6445 61.7233 89.8698 63.7969 89.2773 65.9844C92.513 66.0755 95.2246 66.1439 97.4121 66.1895C99.6452 66.235 101.536 66.2578 103.086 66.2578H109.854C111.449 66.2578 113.066 66.235 114.707 66.1895C116.348 66.1439 118.262 66.0755 120.449 65.9844V65.3008C120.449 62.8398 120.107 60.6523 119.424 58.7383C118.74 56.7786 117.783 55.138 116.553 53.8164C115.322 52.4948 113.841 51.4922 112.109 50.8086C110.378 50.0794 108.486 49.7148 106.436 49.7148ZM156.064 91.3457C156.064 93.9434 156.156 96.0625 156.338 97.7031C156.566 99.3438 156.999 100.62 157.637 101.531C158.275 102.397 159.186 102.99 160.371 103.309C161.556 103.628 163.105 103.787 165.02 103.787H167.959V107C165.771 107.091 163.721 107.16 161.807 107.205C159.893 107.251 158.024 107.342 156.201 107.479C154.378 107.615 152.533 107.798 150.664 108.025C148.796 108.299 146.813 108.709 144.717 109.256C145.264 103.605 145.765 97.8171 146.221 91.8926C146.722 85.9225 147.178 80.0436 147.588 74.2559C147.998 68.4225 148.34 62.7715 148.613 57.3027C148.932 51.834 149.183 46.7754 149.365 42.127C149.593 37.4329 149.753 33.2402 149.844 29.5488C149.98 25.8574 150.049 22.8724 150.049 20.5938C150.049 17.9049 149.912 15.7174 149.639 14.0312C149.365 12.3451 148.864 11.0234 148.135 10.0664C147.406 9.10938 146.38 8.47135 145.059 8.15234C143.783 7.78776 142.119 7.60547 140.068 7.60547H137.539V4.39258C139.727 4.30143 141.777 4.16471 143.691 3.98242C145.651 3.75456 147.542 3.50391 149.365 3.23047C151.234 2.91146 153.102 2.54688 154.971 2.13672C156.839 1.72656 158.822 1.27083 160.918 0.769531C160.371 6.55729 159.87 12.5273 159.414 18.6797C158.958 24.832 158.548 30.916 158.184 36.9316C157.819 42.9473 157.5 48.7806 157.227 54.4316C156.953 60.0371 156.725 65.2324 156.543 70.0176C156.406 74.7572 156.292 78.9727 156.201 82.6641C156.11 86.3555 156.064 89.2493 156.064 91.3457ZM189.15 91.3457C189.15 93.9434 189.242 96.0625 189.424 97.7031C189.652 99.3438 190.085 100.62 190.723 101.531C191.361 102.397 192.272 102.99 193.457 103.309C194.642 103.628 196.191 103.787 198.105 103.787H201.045V107C198.857 107.091 196.807 107.16 194.893 107.205C192.979 107.251 191.11 107.342 189.287 107.479C187.464 107.615 185.618 107.798 183.75 108.025C181.882 108.299 179.899 108.709 177.803 109.256C178.35 103.605 178.851 97.8171 179.307 91.8926C179.808 85.9225 180.264 80.0436 180.674 74.2559C181.084 68.4225 181.426 62.7715 181.699 57.3027C182.018 51.834 182.269 46.7754 182.451 42.127C182.679 37.4329 182.839 33.2402 182.93 29.5488C183.066 25.8574 183.135 22.8724 183.135 20.5938C183.135 17.9049 182.998 15.7174 182.725 14.0312C182.451 12.3451 181.95 11.0234 181.221 10.0664C180.492 9.10938 179.466 8.47135 178.145 8.15234C176.868 7.78776 175.205 7.60547 173.154 7.60547H170.625V4.39258C172.812 4.30143 174.863 4.16471 176.777 3.98242C178.737 3.75456 180.628 3.50391 182.451 3.23047C184.32 2.91146 186.188 2.54688 188.057 2.13672C189.925 1.72656 191.908 1.27083 194.004 0.769531C193.457 6.55729 192.956 12.5273 192.5 18.6797C192.044 24.832 191.634 30.916 191.27 36.9316C190.905 42.9473 190.586 48.7806 190.312 54.4316C190.039 60.0371 189.811 65.2324 189.629 70.0176C189.492 74.7572 189.378 78.9727 189.287 82.6641C189.196 86.3555 189.15 89.2493 189.15 91.3457ZM238.438 49.5781C235.065 49.5781 232.08 50.3301 229.482 51.834C226.885 53.3379 224.697 55.3431 222.92 57.8496C221.188 60.3561 219.867 63.25 218.955 66.5312C218.044 69.7669 217.588 73.1393 217.588 76.6484C217.588 79.9753 217.998 83.2793 218.818 86.5605C219.639 89.8418 220.892 92.804 222.578 95.4473C224.31 98.0449 226.497 100.164 229.141 101.805C231.829 103.4 235.02 104.197 238.711 104.197C241.992 104.197 244.909 103.582 247.461 102.352C250.013 101.121 252.178 99.3665 253.955 97.0879C255.732 94.8092 257.077 92.0293 257.988 88.748C258.945 85.4668 259.424 81.7982 259.424 77.7422C259.424 74.7344 259.014 71.5898 258.193 68.3086C257.373 64.9818 256.097 61.9284 254.365 59.1484C252.679 56.3685 250.514 54.0898 247.871 52.3125C245.228 50.4896 242.083 49.5781 238.438 49.5781ZM207.539 80.2715C207.539 75.9421 208.314 71.7038 209.863 67.5566C211.413 63.4095 213.646 59.7181 216.562 56.4824C219.479 53.2467 223.034 50.6491 227.227 48.6895C231.419 46.6842 236.182 45.6816 241.514 45.6816C246.572 45.6816 250.879 46.388 254.434 47.8008C257.988 49.2135 260.882 51.1504 263.115 53.6113C265.348 56.0267 266.966 58.8522 267.969 62.0879C269.017 65.3236 269.541 68.7643 269.541 72.4102C269.541 77.332 268.675 81.9805 266.943 86.3555C265.212 90.7305 262.819 94.5586 259.766 97.8398C256.712 101.076 253.135 103.65 249.033 105.564C244.932 107.433 240.511 108.367 235.771 108.367C230.303 108.367 225.745 107.592 222.1 106.043C218.499 104.448 215.605 102.352 213.418 99.7539C211.276 97.1562 209.749 94.1712 208.838 90.7988C207.972 87.4264 207.539 83.9173 207.539 80.2715Z" fill="url(#paint0_linear_7_145)"/>
<defs>
<linearGradient id="paint0_linear_7_145" x1="27.1605" y1="147" x2="276.723" y2="-25.507" gradientUnits="userSpaceOnUse">
<stop stop-color="#5E60CE"/>
<stop offset="1" stop-color="#80FFDB"/>
</linearGradient>
</defs>
</svg>
