<svg width="299" height="113" viewBox="0 0 299 113" fill="none" xmlns="http://www.w3.org/2000/svg">
<path opacity="0.2" d="M50.28 111V59.9C50.28 53.8333 48.88 49.54 46.08 47.02C43.3733 44.4067 38.8 43.1 32.36 43.1C27.6933 43.1 23.2133 43.7533 18.92 45.06C14.72 46.2733 10.7067 48 6.88 50.24V38.62C9.58667 37.22 13.2267 35.9133 17.8 34.7C22.4667 33.4867 27.6933 32.88 33.48 32.88C38.4267 32.88 42.6267 33.44 46.08 34.56C49.6267 35.68 52.24 37.7333 53.92 40.72C57.1867 42.2133 59.4267 44.5467 60.64 47.72C61.9467 50.8933 62.6 54.72 62.6 59.2V111H50.28ZM26.2 112.4C17.9867 112.4 11.6867 110.533 7.3 106.8C3.00667 102.973 0.86 97.5133 0.86 90.42C0.86 82.6733 3.66 76.7 9.26 72.5C14.9533 68.3 24.1467 65.8267 36.84 65.08L52.8 64.1V74.46L38.52 75.44C29 76.0933 22.42 77.5867 18.78 79.92C15.2333 82.2533 13.46 85.66 13.46 90.14C13.46 94.34 14.7667 97.42 17.38 99.38C20.0867 101.34 23.82 102.32 28.58 102.32C30.1667 102.32 31.6133 102.227 32.92 102.04C34.2267 101.76 35.4867 101.433 36.7 101.06L38.66 110.44C36.8867 111.093 34.9267 111.56 32.78 111.84C30.7267 112.213 28.5333 112.4 26.2 112.4ZM53.5 45.06L46.5 38.48C48.9267 38.1067 51.2133 37.1733 53.36 35.68C55.5067 34.1867 56.58 32.04 56.58 29.24H68.76C68.76 32.1333 68.06 34.7 66.66 36.94C65.3533 39.0867 63.5333 40.86 61.2 42.26C58.8667 43.5667 56.3 44.5 53.5 45.06ZM100.857 112.4C97.2172 112.4 93.6705 112.027 90.2172 111.28C86.8572 110.533 83.2639 109.133 79.4372 107.08L83.3572 97.56C85.4105 98.7733 87.7439 99.8467 90.3572 100.78C92.9705 101.62 96.0039 102.04 99.4572 102.04C106.364 102.04 111.731 99.52 115.557 94.48C119.477 89.3467 121.437 81.9733 121.437 72.36C121.437 62.9333 119.431 55.7467 115.417 50.8C111.497 45.76 105.431 43.24 97.2172 43.24C94.2305 43.24 91.1972 43.5667 88.1172 44.22C85.0372 44.8733 82.3305 45.8533 79.9972 47.16V36.66C82.7039 35.26 85.6439 34.28 88.8172 33.72C92.0839 33.16 95.3505 32.88 98.6172 32.88C107.017 32.88 113.831 34.56 119.057 37.92C124.284 41.1867 128.111 45.76 130.537 51.64C132.964 57.52 134.177 64.4267 134.177 72.36C134.177 84.68 131.377 94.4333 125.777 101.62C120.271 108.807 111.964 112.4 100.857 112.4ZM114.151 22.1C110.231 22.1 107.104 21.54 104.771 20.42C102.437 19.3 100.757 17.8533 99.7306 16.08C98.6106 14.3067 98.0506 12.44 98.0506 10.48C98.0506 9.07999 98.284 7.58666 98.7506 5.99999C99.124 4.32 99.6373 2.96666 100.291 1.93999L110.791 3.76C110.604 4.13333 110.417 4.78666 110.231 5.72C110.044 6.56 109.951 7.35333 109.951 8.1C109.951 9.31333 110.324 10.3867 111.071 11.32C111.817 12.16 113.077 12.58 114.851 12.58H150.271V22.1H114.151ZM199.303 111V59.9C199.303 53.8333 197.903 49.54 195.103 47.02C192.397 44.4067 187.823 43.1 181.383 43.1C176.717 43.1 172.237 43.7533 167.943 45.06C163.743 46.2733 159.73 48 155.903 50.24V38.62C158.61 37.22 162.25 35.9133 166.823 34.7C171.49 33.4867 176.717 32.88 182.503 32.88C187.45 32.88 191.65 33.44 195.103 34.56C198.65 35.68 201.263 37.7333 202.943 40.72C206.21 42.2133 208.45 44.5467 209.663 47.72C210.97 50.8933 211.623 54.72 211.623 59.2V111H199.303ZM175.223 112.4C167.01 112.4 160.71 110.533 156.323 106.8C152.03 102.973 149.883 97.5133 149.883 90.42C149.883 82.6733 152.683 76.7 158.283 72.5C163.977 68.3 173.17 65.8267 185.863 65.08L201.823 64.1V74.46L187.543 75.44C178.023 76.0933 171.443 77.5867 167.803 79.92C164.257 82.2533 162.483 85.66 162.483 90.14C162.483 94.34 163.79 97.42 166.403 99.38C169.11 101.34 172.843 102.32 177.603 102.32C179.19 102.32 180.637 102.227 181.943 102.04C183.25 101.76 184.51 101.433 185.723 101.06L187.683 110.44C185.91 111.093 183.95 111.56 181.803 111.84C179.75 112.213 177.557 112.4 175.223 112.4ZM202.523 45.06L195.523 38.48C197.95 38.1067 200.237 37.1733 202.383 35.68C204.53 34.1867 205.603 32.04 205.603 29.24H217.783C217.783 32.1333 217.083 34.7 215.683 36.94C214.377 39.0867 212.557 40.86 210.223 42.26C207.89 43.5667 205.323 44.5 202.523 45.06ZM260.661 112.4C253.194 112.4 247.314 110.673 243.021 107.22C238.821 103.673 235.834 98.9133 234.061 92.94C232.381 86.9667 231.541 80.3867 231.541 73.2C231.541 65.2667 232.334 58.7333 233.921 53.6C235.601 48.3733 237.934 44.2667 240.921 41.28C244.001 38.2 247.641 36.0533 251.841 34.84C256.134 33.5333 260.847 32.88 265.981 32.88C273.447 32.88 279.514 34 284.181 36.24C288.941 38.3867 292.441 41.4667 294.681 45.48C296.921 49.4933 298.041 54.3 298.041 59.9V111H285.721V61.02C285.721 55.2333 284.274 50.8467 281.381 47.86C278.487 44.78 273.494 43.24 266.401 43.24C262.107 43.24 258.234 44.0333 254.781 45.62C251.421 47.2067 248.761 50.1467 246.801 54.44C244.934 58.7333 244.001 65.0333 244.001 73.34C244.001 78.7533 244.514 83.6533 245.541 88.04C246.661 92.3333 248.574 95.74 251.281 98.26C253.987 100.78 257.767 102.04 262.621 102.04C264.021 102.04 265.327 101.947 266.541 101.76C267.754 101.573 268.921 101.293 270.041 100.92L271.301 110.58C269.807 111.233 268.081 111.7 266.121 111.98C264.254 112.26 262.434 112.4 260.661 112.4ZM237.45 22.1V16.64L247.67 12.16H296.95V22.1H237.45ZM285.33 16.64V0.819992H297.09V16.64H285.33Z" fill="url(#paint0_linear_7_144)"/>
<defs>
<linearGradient id="paint0_linear_7_144" x1="25.2099" y1="151" x2="285.061" y2="-55.398" gradientUnits="userSpaceOnUse">
<stop stop-color="#5E60CE"/>
<stop offset="1" stop-color="#80FFDB"/>
</linearGradient>
</defs>
</svg>
