<svg width="351" height="69" viewBox="0 0 351 69" fill="none" xmlns="http://www.w3.org/2000/svg">
<path opacity="0.2" d="M5.72 6.92V13.4C12.04 13.96 18.92 14.28 26.92 14.28C34.28 14.28 43 13.72 48.44 13.32V6.76C42.68 7.4 34.6 7.88 26.92 7.88C18.84 7.88 11.48 7.56 5.72 6.92ZM8.92 39.16L2.44 38.52C1.72 41.72 0.840001 45.48 0.840001 49.64C0.840001 59.72 10.28 65 26.52 65C37.88 65 48.04 63.8 53.8 62.28L53.72 55.4C47.64 57.32 37.32 58.52 26.36 58.52C13.56 58.52 7.32 54.36 7.32 48.2C7.32 45.24 7.96 42.28 8.92 39.16ZM102.76 3.64L95.64 0.759995C94.68 3.16 93.64 5.08 92.76 7C88.36 14.68 70.84 47.48 65 63.64L71.88 66.04C73 62.12 76.36 52.6 78.84 47.88C81.88 41.56 87.96 35 94.36 35C97.96 35 100.04 37.16 100.2 40.6C100.44 45 100.36 51.16 100.6 55.88C100.84 60.6 103.64 65.96 112.2 65.96C123.8 65.96 130.52 57 134.76 44.12L129.4 39.8C127.4 48.36 122.12 59.4 113.16 59.4C109.72 59.4 107 57.64 106.76 53.64C106.44 49.72 106.6 43.64 106.44 38.92C106.2 32.6 102.36 29.16 97 29.16C93.16 29.16 89 30.68 85.16 34.12C89.24 26.36 96.6 13.08 100.2 7.56C101.08 6.04 102.04 4.6 102.76 3.64ZM167.4 9L167.48 15.48C176.2 16.44 191.72 16.44 200.28 15.48V9C192.36 10.2 176.12 10.52 167.4 9ZM170.52 41.64L164.76 41.08C163.88 44.92 163.48 47.8 163.48 50.44C163.48 57.96 169.48 62.44 182.84 62.44C191.16 62.44 197.88 61.8 202.84 60.76L202.68 54.04C196.28 55.56 190.04 56.2 182.92 56.2C171.96 56.2 169.4 52.6 169.4 48.92C169.4 46.76 169.8 44.52 170.52 41.64ZM152.2 2.84L145.08 2.27999C145 4.04 144.76 6.04 144.52 7.88C143.56 14.52 140.92 28.2 140.92 39.96C140.92 50.84 142.28 60.04 143.88 65.72L149.56 65.32C149.48 64.44 149.4 63.32 149.32 62.52C149.32 61.56 149.48 60.04 149.72 58.92C150.44 55.08 153.4 46.68 155.4 41L152.04 38.36C150.68 41.64 148.84 46.44 147.48 50.04C147 46.12 146.76 42.76 146.76 38.92C146.76 29.88 149.24 15.64 150.76 8.2C151.08 6.76 151.72 4.2 152.2 2.84ZM236.84 0.359996L229.64 0.0399952C229.8 2.2 229.64 4.12 229.32 6.68C228.36 14.36 224.12 34.2 218.04 46.12L223.96 48.2C224.76 46.84 225.48 45.72 226.44 44.52C231.72 38.2 240.6 34.92 250.12 34.92C259.48 34.92 264.36 39.56 264.36 45.48C264.36 58.68 246.44 61.8 227.88 59.24L229.56 65.64C253.88 68.2 270.92 62.04 270.92 45.32C270.92 35.96 263.48 29.48 250.76 29.48C242.44 29.48 235.24 31.48 228.28 36.36C231 28.92 234.2 13.48 235.32 7.08C235.8 5 236.2 2.52 236.84 0.359996ZM211.96 10.6L212.04 16.84C216.6 17.24 221.72 17.64 227.16 17.64C238.12 17.64 254.44 16.04 265.8 14.04L265.64 7.88C253.08 10.68 237.32 11.88 227.08 11.88C222.28 11.88 216.2 11.32 211.96 10.6ZM306.84 15.72L306.92 21.8C311.56 22.12 315.72 22.28 320.36 22.28C329.72 22.28 339.48 21.64 347.96 20.2V14.04C339.88 15.72 330.04 16.44 320.44 16.44C315.72 16.44 311.4 16.2 306.84 15.72ZM334.84 1.4H327.64C327.88 2.84 327.96 4.92 327.96 6.36C327.96 9.16 328.04 14.2 328.04 19.72C328.04 30.28 329.08 45.24 329.08 51C329.08 56.36 327.16 59.72 320.44 59.72C314.6 59.72 310.68 57.56 310.68 53.4C310.68 49.56 314.84 46.92 320.84 46.92C331 46.92 339.08 52.36 347.48 60.2L350.92 54.92C344.2 48.84 334.84 42.04 321.4 42.04C310.84 42.04 304.92 47.32 304.92 54.04C304.92 61.24 310.76 65.56 321.48 65.56C332.28 65.56 335.32 59.16 335.32 52.6C335.32 44.36 334.12 31.88 334.12 19.56C334.12 14.84 334.2 9.16 334.36 6.2C334.44 4.68 334.6 3 334.84 1.4ZM295.4 1.96L288.36 1.32C288.28 3.08 288.12 5.16 287.8 7.08C286.84 13.64 284.12 28.92 284.12 40.68C284.12 51.48 285.64 60.28 287.16 66.04L292.84 65.56C292.76 64.76 292.68 63.56 292.6 62.76C292.52 61.88 292.68 60.28 292.92 59.16C293.72 55.24 296.68 47.08 298.68 41.48L295.4 38.92C294.04 42.2 292.04 47.08 290.76 50.76C290.2 46.84 289.96 43.48 289.96 39.56C289.96 30.6 292.36 14.76 293.96 7.32C294.28 5.88 294.92 3.24 295.4 1.96Z" fill="url(#paint0_linear_7_143)"/>
<defs>
<linearGradient id="paint0_linear_7_143" x1="23.3457" y1="86" x2="159.666" y2="-134.669" gradientUnits="userSpaceOnUse">
<stop stop-color="#5E60CE"/>
<stop offset="1" stop-color="#80FFDB"/>
</linearGradient>
</defs>
</svg>
