<svg width="99" height="47" viewBox="0 0 99 47" fill="none" xmlns="http://www.w3.org/2000/svg">
<path opacity="0.2" d="M23.25 0.249998C21.6 7.6 18.7 14.8 15 19.45C15.85 20 17.35 21.2 18 21.85C21.85 16.75 25 9.05 26.95 1.05L23.25 0.249998ZM22.4 21.45C21 27.45 18.6 33.4 15.5 37.25C16.4 37.7 18 38.7 18.75 39.3C21.8 35.1 24.5 28.75 26.05 22.2L22.4 21.45ZM22.8 9.65L21.35 13.15H45.3V9.65H22.8ZM30.55 11.1V41.45C30.55 42.1 30.35 42.3 29.7 42.3C29 42.3 26.85 42.35 24.5 42.25C25.05 43.35 25.6 45 25.85 46.05C28.95 46.05 31.1 45.95 32.45 45.3C33.85 44.7 34.3 43.6 34.3 41.45V11.1H30.55ZM37.9 22.2C40.65 27.45 43.15 34.5 43.95 39.1L47.5 37.9C46.65 33.25 44.15 26.35 41.25 21.1L37.9 22.2ZM44.2 9.65V10.2C43.7 13.5 43.05 17.7 42.5 20.2L45.75 20.8C46.4 18.1 47.25 13.8 47.95 10.1L45.35 9.55L44.7 9.65H44.2ZM13.2 0.199999C10.4 7.8 5.7 15.3 0.75 20.15C1.45 21 2.5 23 2.9 23.85C8.3 18.25 13.45 9.8 16.75 1.3L13.2 0.199999ZM8 13.1V45.95H11.6V9.6L11.5 9.55L8 13.1ZM72.35 2.6V6.1H94.3V2.6H72.35ZM70.65 20.15V23.75H98.15V20.15H70.65ZM82.45 13.5V41.25C82.45 42 82.2 42.25 81.35 42.3C80.45 42.35 77.65 42.35 74.5 42.25C75 43.25 75.65 44.9 75.85 45.9C79.85 45.95 82.45 45.85 84.1 45.25C85.65 44.65 86.2 43.55 86.2 41.3V13.5H82.45ZM92.95 2.6V3.45C90.95 6.7 86.8 11.4 83.2 14.1C83.85 14.6 84.9 15.6 85.45 16.3C89.45 13.3 94.1 8.45 97.1 4.2L94.65 2.4L93.85 2.6H92.95ZM52.15 10.35V13.85H68.6V10.35H52.15ZM59.7 0.0499977C58 9.55 55 22.95 52.8 30.6L55.95 32.25C58.2 23.95 61.35 10.45 63.25 0.449998L59.7 0.0499977ZM54.65 29C60.25 32.25 66.7 37.35 69.7 41.1L71.95 38.05C68.95 34.35 62.35 29.55 56.75 26.4L54.65 29ZM67.35 10.35V11.1C66.1 28.1 60.9 38.7 52.55 43.1C53.35 43.85 54.4 45.2 54.9 46.1C64.1 40.6 69.55 30 70.9 10.65L68.65 10.2L67.95 10.35H67.35Z" fill="url(#paint0_linear_7_140)"/>
<defs>
<linearGradient id="paint0_linear_7_140" x1="9.87654" y1="57" x2="100.035" y2="-5.95021" gradientUnits="userSpaceOnUse">
<stop stop-color="#5E60CE"/>
<stop offset="1" stop-color="#80FFDB"/>
</linearGradient>
</defs>
</svg>
