<svg width="23" height="23" viewBox="0 0 17 23" fill="none" xmlns="http://www.w3.org/2000/svg">
<path d="M14.6364 7.66667H13.5909V5.47619C13.5909 2.45333 11.2491 0 8.36364 0C5.47818 0 3.13636 2.45333 3.13636 5.47619V7.66667H2.09091C0.940909 7.66667 0 8.65238 0 9.85714V20.8095C0 22.0143 0.940909 23 2.09091 23H14.6364C15.7864 23 16.7273 22.0143 16.7273 20.8095V9.85714C16.7273 8.65238 15.7864 7.66667 14.6364 7.66667ZM8.36364 17.5238C7.21364 17.5238 6.27273 16.5381 6.27273 15.3333C6.27273 14.1286 7.21364 13.1429 8.36364 13.1429C9.51364 13.1429 10.4545 14.1286 10.4545 15.3333C10.4545 16.5381 9.51364 17.5238 8.36364 17.5238ZM11.6045 7.66667H5.12273V5.47619C5.12273 3.60333 6.57591 2.08095 8.36364 2.08095C10.1514 2.08095 11.6045 3.60333 11.6045 5.47619V7.66667Z" fill="#666666"/>
</svg>
