<svg width="23" height="20" viewBox="0 0 23 20" fill="none" xmlns="http://www.w3.org/2000/svg">
<path d="M13.0835 0.25C7.69933 0.25 3.3335 4.61583 3.3335 10H0.0834961L4.29766 14.2142L4.3735 14.3658L8.75016 10H5.50016C5.50016 5.8075 8.891 2.41667 13.0835 2.41667C17.276 2.41667 20.6668 5.8075 20.6668 10C20.6668 14.1925 17.276 17.5833 13.0835 17.5833C10.9927 17.5833 9.09683 16.7275 7.73183 15.3517L6.1935 16.89C7.95933 18.6558 10.386 19.75 13.0835 19.75C18.4677 19.75 22.8335 15.3842 22.8335 10C22.8335 4.61583 18.4677 0.25 13.0835 0.25ZM12.0002 5.66667V11.0833L16.6368 13.835L17.4168 12.5242L13.6252 10.2708V5.66667H12.0002Z" fill="#307171"/>
</svg>
