<svg width="1439" height="595" viewBox="0 0 1439 595" fill="none" xmlns="http://www.w3.org/2000/svg">
<rect x="-1" width="1440" height="595" fill="white"/>
<path opacity="0.2" d="M852.25 490.25C850.6 497.6 847.7 504.8 844 509.45C844.85 510 846.35 511.2 847 511.85C850.85 506.75 854 499.05 855.95 491.05L852.25 490.25ZM851.4 511.45C850 517.45 847.6 523.4 844.5 527.25C845.4 527.7 847 528.7 847.75 529.3C850.8 525.1 853.5 518.75 855.05 512.2L851.4 511.45ZM851.8 499.65L850.35 503.15H874.3V499.65H851.8ZM859.55 501.1V531.45C859.55 532.1 859.35 532.3 858.7 532.3C858 532.3 855.85 532.35 853.5 532.25C854.05 533.35 854.6 535 854.85 536.05C857.95 536.05 860.1 535.95 861.45 535.3C862.85 534.7 863.3 533.6 863.3 531.45V501.1H859.55ZM866.9 512.2C869.65 517.45 872.15 524.5 872.95 529.1L876.5 527.9C875.65 523.25 873.15 516.35 870.25 511.1L866.9 512.2ZM873.2 499.65V500.2C872.7 503.5 872.05 507.7 871.5 510.2L874.75 510.8C875.4 508.1 876.25 503.8 876.95 500.1L874.35 499.55L873.7 499.65H873.2ZM842.2 490.2C839.4 497.8 834.7 505.3 829.75 510.15C830.45 511 831.5 513 831.9 513.85C837.3 508.25 842.45 499.8 845.75 491.3L842.2 490.2ZM837 503.1V535.95H840.6V499.6L840.5 499.55L837 503.1ZM901.35 492.6V496.1H923.3V492.6H901.35ZM899.65 510.15V513.75H927.15V510.15H899.65ZM911.45 503.5V531.25C911.45 532 911.2 532.25 910.35 532.3C909.45 532.35 906.65 532.35 903.5 532.25C904 533.25 904.65 534.9 904.85 535.9C908.85 535.95 911.45 535.85 913.1 535.25C914.65 534.65 915.2 533.55 915.2 531.3V503.5H911.45ZM921.95 492.6V493.45C919.95 496.7 915.8 501.4 912.2 504.1C912.85 504.6 913.9 505.6 914.45 506.3C918.45 503.3 923.1 498.45 926.1 494.2L923.65 492.4L922.85 492.6H921.95ZM881.15 500.35V503.85H897.6V500.35H881.15ZM888.7 490.05C887 499.55 884 512.95 881.8 520.6L884.95 522.25C887.2 513.95 890.35 500.45 892.25 490.45L888.7 490.05ZM883.65 519C889.25 522.25 895.7 527.35 898.7 531.1L900.95 528.05C897.95 524.35 891.35 519.55 885.75 516.4L883.65 519ZM896.35 500.35V501.1C895.1 518.1 889.9 528.7 881.55 533.1C882.35 533.85 883.4 535.2 883.9 536.1C893.1 530.6 898.55 520 899.9 500.65L897.65 500.2L896.95 500.35H896.35Z" fill="url(#paint0_linear_284_704)"/>
<path opacity="0.2" d="M1049.38 339.25C1049.38 336.177 1049.22 333.677 1048.91 331.75C1048.65 329.823 1048.1 328.312 1047.27 327.219C1046.43 326.125 1045.26 325.396 1043.75 325.031C1042.29 324.615 1040.39 324.406 1038.05 324.406H1035.16V320.734C1037.45 320.63 1039.58 320.5 1041.56 320.344C1043.54 320.135 1045.55 319.875 1047.58 319.562C1049.66 319.25 1051.85 318.859 1054.14 318.391C1056.43 317.922 1059.01 317.323 1061.88 316.594C1061.67 318.573 1061.43 321.047 1061.17 324.016C1060.91 326.984 1060.62 330.266 1060.31 333.859C1060.05 337.453 1059.77 341.281 1059.45 345.344C1059.14 349.406 1058.85 353.521 1058.59 357.688C1058.33 361.802 1058.07 365.917 1057.81 370.031C1057.6 374.094 1057.42 377.922 1057.27 381.516C1060.13 379.172 1062.81 377.167 1065.31 375.5C1067.86 373.781 1070.31 372.375 1072.66 371.281C1075.05 370.135 1077.42 369.302 1079.77 368.781C1082.11 368.208 1084.53 367.922 1087.03 367.922C1088.65 367.922 1090.47 368.182 1092.5 368.703C1094.58 369.172 1096.54 370.161 1098.36 371.672C1100.18 373.182 1101.72 375.318 1102.97 378.078C1104.27 380.786 1104.92 384.38 1104.92 388.859C1104.92 391.776 1104.79 394.823 1104.53 398C1104.32 401.177 1104.06 404.328 1103.75 407.453C1103.49 410.526 1103.23 413.521 1102.97 416.438C1102.76 419.302 1102.66 421.906 1102.66 424.25C1102.66 426.281 1102.81 427.948 1103.12 429.25C1103.49 430.5 1104.04 431.516 1104.77 432.297C1105.55 433.026 1106.54 433.521 1107.73 433.781C1108.93 434.042 1110.39 434.172 1112.11 434.172H1116.41V438C1113.7 438.104 1111.17 438.182 1108.83 438.234C1106.48 438.339 1104.24 438.469 1102.11 438.625C1099.97 438.781 1097.89 438.99 1095.86 439.25C1093.88 439.562 1091.88 440.005 1089.84 440.578C1090.31 437.557 1090.81 434.146 1091.33 430.344C1091.85 426.542 1092.32 422.714 1092.73 418.859C1093.2 414.953 1093.57 411.151 1093.83 407.453C1094.09 403.755 1094.22 400.5 1094.22 397.688C1094.22 394.979 1094.09 392.323 1093.83 389.719C1093.62 387.115 1093.02 384.797 1092.03 382.766C1091.09 380.682 1089.64 379.016 1087.66 377.766C1085.68 376.516 1082.94 375.891 1079.45 375.891C1077.47 375.891 1075.42 376.255 1073.28 376.984C1071.2 377.714 1069.17 378.625 1067.19 379.719C1065.21 380.812 1063.33 382.036 1061.56 383.391C1059.84 384.745 1058.36 386.047 1057.11 387.297C1056.95 389.797 1056.8 392.427 1056.64 395.188C1056.54 397.896 1056.46 400.604 1056.41 403.312C1056.35 405.969 1056.3 408.573 1056.25 411.125C1056.25 413.625 1056.25 415.969 1056.25 418.156C1056.25 421.542 1056.33 424.276 1056.48 426.359C1056.69 428.443 1057.11 430.083 1057.73 431.281C1058.41 432.479 1059.4 433.286 1060.7 433.703C1062.01 434.12 1063.78 434.328 1066.02 434.328H1069.84V438C1067.03 438 1064.43 438.026 1062.03 438.078C1059.64 438.182 1057.34 438.339 1055.16 438.547C1053.02 438.755 1050.96 439.016 1048.98 439.328C1047.06 439.693 1045.16 440.109 1043.28 440.578C1044.01 433.339 1044.66 426.177 1045.23 419.094C1045.86 411.958 1046.41 405.083 1046.88 398.469C1047.34 391.802 1047.73 385.474 1048.05 379.484C1048.36 373.443 1048.62 367.87 1048.83 362.766C1049.04 357.661 1049.17 353.13 1049.22 349.172C1049.32 345.161 1049.38 341.854 1049.38 339.25ZM1122.89 425.812C1122.89 422.74 1123.67 420.083 1125.23 417.844C1126.85 415.604 1128.91 413.677 1131.41 412.062C1133.96 410.448 1136.8 409.12 1139.92 408.078C1143.05 407.036 1146.17 406.203 1149.3 405.578C1152.42 404.953 1155.36 404.51 1158.12 404.25C1160.94 403.938 1163.23 403.729 1165 403.625C1165.26 401.281 1165.42 399.016 1165.47 396.828C1165.57 394.641 1165.62 392.583 1165.62 390.656C1165.62 388.208 1165.44 385.865 1165.08 383.625C1164.71 381.385 1164.01 379.406 1162.97 377.688C1161.93 375.969 1160.47 374.615 1158.59 373.625C1156.77 372.583 1154.38 372.062 1151.41 372.062C1149.32 372.062 1147.4 372.453 1145.62 373.234C1143.85 374.016 1142.32 375.083 1141.02 376.438C1139.77 377.74 1138.78 379.302 1138.05 381.125C1137.37 382.896 1137.03 384.797 1137.03 386.828C1137.03 387.609 1137.08 388.417 1137.19 389.25C1137.34 390.031 1137.55 390.865 1137.81 391.75C1137.24 392.427 1136.43 392.948 1135.39 393.312C1134.4 393.677 1133.39 393.859 1132.34 393.859C1131.56 393.859 1130.81 393.755 1130.08 393.547C1129.35 393.286 1128.7 392.896 1128.12 392.375C1127.55 391.854 1127.08 391.177 1126.72 390.344C1126.41 389.51 1126.25 388.495 1126.25 387.297C1126.25 384.38 1127.24 381.724 1129.22 379.328C1131.25 376.932 1133.78 374.901 1136.8 373.234C1139.87 371.516 1143.2 370.214 1146.8 369.328C1150.39 368.391 1153.8 367.922 1157.03 367.922C1163.18 367.922 1167.97 369.328 1171.41 372.141C1174.9 374.953 1176.64 379.615 1176.64 386.125C1176.64 388.938 1176.51 392.036 1176.25 395.422C1176.04 398.755 1175.78 402.062 1175.47 405.344C1175.16 408.625 1174.87 411.75 1174.61 414.719C1174.4 417.635 1174.3 420.057 1174.3 421.984C1174.3 425.266 1174.69 427.818 1175.47 429.641C1176.3 431.464 1177.55 432.375 1179.22 432.375C1180.21 432.375 1181.2 432.089 1182.19 431.516C1183.18 430.891 1184.11 430.188 1185 429.406C1185.89 428.573 1186.67 427.74 1187.34 426.906C1188.02 426.021 1188.57 425.344 1188.98 424.875L1191.88 427.297C1190.05 429.849 1188.36 431.932 1186.8 433.547C1185.23 435.109 1183.75 436.359 1182.34 437.297C1180.94 438.182 1179.58 438.781 1178.28 439.094C1176.98 439.406 1175.7 439.562 1174.45 439.562C1172.53 439.562 1170.86 439.172 1169.45 438.391C1168.05 437.661 1166.88 436.672 1165.94 435.422C1165.05 434.172 1164.35 432.74 1163.83 431.125C1163.36 429.51 1163.1 427.844 1163.05 426.125C1162.01 427.844 1160.78 429.51 1159.38 431.125C1157.97 432.74 1156.33 434.172 1154.45 435.422C1152.58 436.672 1150.44 437.661 1148.05 438.391C1145.65 439.172 1142.97 439.562 1140 439.562C1136.46 439.562 1133.57 439.094 1131.33 438.156C1129.09 437.271 1127.34 436.151 1126.09 434.797C1124.84 433.391 1123.98 431.88 1123.52 430.266C1123.1 428.651 1122.89 427.167 1122.89 425.812ZM1144.06 433.859C1147.4 433.859 1150.23 433.13 1152.58 431.672C1154.97 430.161 1156.95 428.182 1158.52 425.734C1160.13 423.286 1161.41 420.5 1162.34 417.375C1163.33 414.198 1164.06 410.943 1164.53 407.609C1162.76 407.766 1160.78 407.948 1158.59 408.156C1156.41 408.365 1154.19 408.703 1151.95 409.172C1149.77 409.589 1147.6 410.188 1145.47 410.969C1143.39 411.698 1141.51 412.661 1139.84 413.859C1138.23 415.057 1136.93 416.516 1135.94 418.234C1134.95 419.901 1134.45 421.906 1134.45 424.25C1134.45 426.229 1134.77 427.844 1135.39 429.094C1136.07 430.292 1136.9 431.255 1137.89 431.984C1138.88 432.714 1139.92 433.208 1141.02 433.469C1142.11 433.729 1143.12 433.859 1144.06 433.859ZM1213.05 420.109C1213.05 423.078 1213.15 425.5 1213.36 427.375C1213.62 429.25 1214.11 430.708 1214.84 431.75C1215.57 432.74 1216.61 433.417 1217.97 433.781C1219.32 434.146 1221.09 434.328 1223.28 434.328H1226.64V438C1224.14 438.104 1221.8 438.182 1219.61 438.234C1217.42 438.286 1215.29 438.391 1213.2 438.547C1211.12 438.703 1209.01 438.911 1206.88 439.172C1204.74 439.484 1202.47 439.953 1200.08 440.578C1200.7 434.12 1201.28 427.505 1201.8 420.734C1202.37 413.911 1202.89 407.193 1203.36 400.578C1203.83 393.911 1204.22 387.453 1204.53 381.203C1204.9 374.953 1205.18 369.172 1205.39 363.859C1205.65 358.495 1205.83 353.703 1205.94 349.484C1206.09 345.266 1206.17 341.854 1206.17 339.25C1206.17 336.177 1206.02 333.677 1205.7 331.75C1205.39 329.823 1204.82 328.312 1203.98 327.219C1203.15 326.125 1201.98 325.396 1200.47 325.031C1199.01 324.615 1197.11 324.406 1194.77 324.406H1191.88V320.734C1194.38 320.63 1196.72 320.474 1198.91 320.266C1201.15 320.005 1203.31 319.719 1205.39 319.406C1207.53 319.042 1209.66 318.625 1211.8 318.156C1213.93 317.688 1216.2 317.167 1218.59 316.594C1217.97 323.208 1217.4 330.031 1216.88 337.062C1216.35 344.094 1215.89 351.047 1215.47 357.922C1215.05 364.797 1214.69 371.464 1214.38 377.922C1214.06 384.328 1213.8 390.266 1213.59 395.734C1213.44 401.151 1213.31 405.969 1213.2 410.188C1213.1 414.406 1213.05 417.714 1213.05 420.109ZM1250.86 420.109C1250.86 423.078 1250.96 425.5 1251.17 427.375C1251.43 429.25 1251.93 430.708 1252.66 431.75C1253.39 432.74 1254.43 433.417 1255.78 433.781C1257.14 434.146 1258.91 434.328 1261.09 434.328H1264.45V438C1261.95 438.104 1259.61 438.182 1257.42 438.234C1255.23 438.286 1253.1 438.391 1251.02 438.547C1248.93 438.703 1246.82 438.911 1244.69 439.172C1242.55 439.484 1240.29 439.953 1237.89 440.578C1238.52 434.12 1239.09 427.505 1239.61 420.734C1240.18 413.911 1240.7 407.193 1241.17 400.578C1241.64 393.911 1242.03 387.453 1242.34 381.203C1242.71 374.953 1242.99 369.172 1243.2 363.859C1243.46 358.495 1243.65 353.703 1243.75 349.484C1243.91 345.266 1243.98 341.854 1243.98 339.25C1243.98 336.177 1243.83 333.677 1243.52 331.75C1243.2 329.823 1242.63 328.312 1241.8 327.219C1240.96 326.125 1239.79 325.396 1238.28 325.031C1236.82 324.615 1234.92 324.406 1232.58 324.406H1229.69V320.734C1232.19 320.63 1234.53 320.474 1236.72 320.266C1238.96 320.005 1241.12 319.719 1243.2 319.406C1245.34 319.042 1247.47 318.625 1249.61 318.156C1251.74 317.688 1254.01 317.167 1256.41 316.594C1255.78 323.208 1255.21 330.031 1254.69 337.062C1254.17 344.094 1253.7 351.047 1253.28 357.922C1252.86 364.797 1252.5 371.464 1252.19 377.922C1251.88 384.328 1251.61 390.266 1251.41 395.734C1251.25 401.151 1251.12 405.969 1251.02 410.188C1250.91 414.406 1250.86 417.714 1250.86 420.109ZM1307.19 372.375C1303.33 372.375 1299.92 373.234 1296.95 374.953C1293.98 376.672 1291.48 378.964 1289.45 381.828C1287.47 384.693 1285.96 388 1284.92 391.75C1283.88 395.448 1283.36 399.302 1283.36 403.312C1283.36 407.115 1283.83 410.891 1284.77 414.641C1285.7 418.391 1287.14 421.776 1289.06 424.797C1291.04 427.766 1293.54 430.188 1296.56 432.062C1299.64 433.885 1303.28 434.797 1307.5 434.797C1311.25 434.797 1314.58 434.094 1317.5 432.688C1320.42 431.281 1322.89 429.276 1324.92 426.672C1326.95 424.068 1328.49 420.891 1329.53 417.141C1330.62 413.391 1331.17 409.198 1331.17 404.562C1331.17 401.125 1330.7 397.531 1329.77 393.781C1328.83 389.979 1327.37 386.49 1325.39 383.312C1323.46 380.135 1320.99 377.531 1317.97 375.5C1314.95 373.417 1311.35 372.375 1307.19 372.375ZM1271.88 407.453C1271.88 402.505 1272.76 397.661 1274.53 392.922C1276.3 388.182 1278.85 383.964 1282.19 380.266C1285.52 376.568 1289.58 373.599 1294.38 371.359C1299.17 369.068 1304.61 367.922 1310.7 367.922C1316.48 367.922 1321.41 368.729 1325.47 370.344C1329.53 371.958 1332.84 374.172 1335.39 376.984C1337.94 379.745 1339.79 382.974 1340.94 386.672C1342.14 390.37 1342.73 394.302 1342.73 398.469C1342.73 404.094 1341.74 409.406 1339.77 414.406C1337.79 419.406 1335.05 423.781 1331.56 427.531C1328.07 431.229 1323.98 434.172 1319.3 436.359C1314.61 438.495 1309.56 439.562 1304.14 439.562C1297.89 439.562 1292.68 438.677 1288.52 436.906C1284.4 435.083 1281.09 432.688 1278.59 429.719C1276.15 426.75 1274.4 423.339 1273.36 419.484C1272.37 415.63 1271.88 411.62 1271.88 407.453Z" fill="url(#paint1_linear_284_704)"/>
<path opacity="0.2" d="M391.492 91.1406C391.492 90.1803 391.443 89.3991 391.346 88.7969C391.264 88.1947 391.093 87.7227 390.833 87.3809C390.573 87.0391 390.206 86.8112 389.734 86.6973C389.279 86.5671 388.685 86.502 387.952 86.502H387.049V85.3545C387.765 85.3219 388.432 85.2812 389.051 85.2324C389.669 85.1673 390.296 85.0859 390.931 84.9883C391.582 84.8906 392.265 84.7686 392.981 84.6221C393.698 84.4756 394.503 84.2884 395.398 84.0605C395.333 84.679 395.26 85.4521 395.179 86.3799C395.097 87.3076 395.008 88.333 394.91 89.4561C394.829 90.5791 394.739 91.7754 394.642 93.0449C394.544 94.3145 394.454 95.6003 394.373 96.9023C394.292 98.1882 394.21 99.474 394.129 100.76C394.064 102.029 394.007 103.226 393.958 104.349C394.853 103.616 395.691 102.99 396.473 102.469C397.27 101.932 398.035 101.492 398.768 101.15C399.516 100.792 400.257 100.532 400.989 100.369C401.722 100.19 402.479 100.101 403.26 100.101C403.764 100.101 404.334 100.182 404.969 100.345C405.62 100.491 406.23 100.8 406.8 101.272C407.369 101.744 407.85 102.412 408.24 103.274C408.647 104.121 408.851 105.244 408.851 106.644C408.851 107.555 408.81 108.507 408.729 109.5C408.663 110.493 408.582 111.478 408.484 112.454C408.403 113.414 408.322 114.35 408.24 115.262C408.175 116.157 408.143 116.971 408.143 117.703C408.143 118.338 408.191 118.859 408.289 119.266C408.403 119.656 408.574 119.974 408.802 120.218C409.046 120.446 409.355 120.6 409.729 120.682C410.104 120.763 410.56 120.804 411.097 120.804H412.439V122C411.593 122.033 410.804 122.057 410.071 122.073C409.339 122.106 408.639 122.146 407.972 122.195C407.304 122.244 406.653 122.309 406.019 122.391C405.4 122.488 404.773 122.627 404.139 122.806C404.285 121.862 404.44 120.796 404.603 119.607C404.765 118.419 404.912 117.223 405.042 116.019C405.188 114.798 405.302 113.61 405.384 112.454C405.465 111.299 405.506 110.281 405.506 109.402C405.506 108.556 405.465 107.726 405.384 106.912C405.319 106.098 405.132 105.374 404.822 104.739C404.529 104.088 404.074 103.567 403.455 103.177C402.837 102.786 401.982 102.591 400.892 102.591C400.273 102.591 399.63 102.705 398.963 102.933C398.312 103.16 397.677 103.445 397.059 103.787C396.44 104.129 395.854 104.511 395.301 104.935C394.764 105.358 394.3 105.765 393.909 106.155C393.86 106.937 393.812 107.758 393.763 108.621C393.73 109.467 393.706 110.314 393.689 111.16C393.673 111.99 393.657 112.804 393.641 113.602C393.641 114.383 393.641 115.115 393.641 115.799C393.641 116.857 393.665 117.711 393.714 118.362C393.779 119.013 393.909 119.526 394.104 119.9C394.316 120.275 394.625 120.527 395.032 120.657C395.439 120.787 395.993 120.853 396.692 120.853H397.889V122C397.01 122 396.196 122.008 395.447 122.024C394.699 122.057 393.982 122.106 393.299 122.171C392.632 122.236 391.989 122.317 391.37 122.415C390.768 122.529 390.174 122.659 389.588 122.806C389.816 120.543 390.019 118.305 390.198 116.092C390.394 113.862 390.564 111.714 390.711 109.646C390.857 107.563 390.979 105.586 391.077 103.714C391.175 101.826 391.256 100.084 391.321 98.4893C391.386 96.8942 391.427 95.4782 391.443 94.2412C391.476 92.988 391.492 91.9544 391.492 91.1406ZM414.466 118.191C414.466 117.231 414.71 116.401 415.198 115.701C415.703 115.001 416.346 114.399 417.127 113.895C417.924 113.39 418.812 112.975 419.788 112.649C420.765 112.324 421.741 112.063 422.718 111.868C423.694 111.673 424.614 111.535 425.477 111.453C426.355 111.355 427.072 111.29 427.625 111.258C427.706 110.525 427.755 109.817 427.771 109.134C427.804 108.45 427.82 107.807 427.82 107.205C427.82 106.44 427.763 105.708 427.649 105.008C427.535 104.308 427.316 103.689 426.99 103.152C426.665 102.615 426.209 102.192 425.623 101.883C425.053 101.557 424.305 101.395 423.377 101.395C422.726 101.395 422.124 101.517 421.57 101.761C421.017 102.005 420.537 102.339 420.13 102.762C419.739 103.169 419.43 103.657 419.202 104.227C418.991 104.78 418.885 105.374 418.885 106.009C418.885 106.253 418.901 106.505 418.934 106.766C418.982 107.01 419.048 107.27 419.129 107.547C418.95 107.758 418.698 107.921 418.372 108.035C418.063 108.149 417.745 108.206 417.42 108.206C417.176 108.206 416.94 108.174 416.712 108.108C416.484 108.027 416.281 107.905 416.102 107.742C415.923 107.579 415.776 107.368 415.662 107.107C415.564 106.847 415.516 106.53 415.516 106.155C415.516 105.244 415.825 104.414 416.443 103.665C417.078 102.916 417.868 102.282 418.812 101.761C419.772 101.224 420.813 100.817 421.937 100.54C423.06 100.247 424.126 100.101 425.135 100.101C427.055 100.101 428.553 100.54 429.627 101.419C430.717 102.298 431.263 103.755 431.263 105.789C431.263 106.668 431.222 107.636 431.141 108.694C431.076 109.736 430.994 110.77 430.896 111.795C430.799 112.82 430.709 113.797 430.628 114.725C430.563 115.636 430.53 116.393 430.53 116.995C430.53 118.021 430.652 118.818 430.896 119.388C431.157 119.957 431.548 120.242 432.068 120.242C432.378 120.242 432.687 120.153 432.996 119.974C433.305 119.778 433.598 119.559 433.875 119.314C434.152 119.054 434.396 118.794 434.607 118.533C434.819 118.257 434.99 118.045 435.12 117.898L436.023 118.655C435.454 119.453 434.925 120.104 434.437 120.608C433.948 121.097 433.484 121.487 433.045 121.78C432.605 122.057 432.182 122.244 431.775 122.342C431.368 122.439 430.97 122.488 430.579 122.488C429.977 122.488 429.456 122.366 429.017 122.122C428.577 121.894 428.211 121.585 427.918 121.194C427.641 120.804 427.422 120.356 427.259 119.852C427.112 119.347 427.031 118.826 427.015 118.289C426.689 118.826 426.307 119.347 425.867 119.852C425.428 120.356 424.915 120.804 424.329 121.194C423.743 121.585 423.076 121.894 422.327 122.122C421.578 122.366 420.74 122.488 419.812 122.488C418.706 122.488 417.802 122.342 417.103 122.049C416.403 121.772 415.857 121.422 415.467 120.999C415.076 120.56 414.808 120.088 414.661 119.583C414.531 119.078 414.466 118.615 414.466 118.191ZM421.082 120.706C422.124 120.706 423.011 120.478 423.743 120.022C424.492 119.55 425.11 118.932 425.599 118.167C426.103 117.402 426.502 116.531 426.795 115.555C427.104 114.562 427.332 113.545 427.479 112.503C426.925 112.552 426.307 112.609 425.623 112.674C424.939 112.739 424.248 112.845 423.548 112.991C422.864 113.121 422.189 113.309 421.521 113.553C420.87 113.781 420.285 114.082 419.764 114.456C419.259 114.83 418.852 115.286 418.543 115.823C418.234 116.344 418.079 116.971 418.079 117.703C418.079 118.322 418.177 118.826 418.372 119.217C418.584 119.591 418.844 119.892 419.153 120.12C419.463 120.348 419.788 120.503 420.13 120.584C420.472 120.665 420.789 120.706 421.082 120.706ZM442.64 116.409C442.64 117.337 442.672 118.094 442.737 118.68C442.819 119.266 442.973 119.721 443.201 120.047C443.429 120.356 443.755 120.568 444.178 120.682C444.601 120.796 445.154 120.853 445.838 120.853H446.888V122C446.106 122.033 445.374 122.057 444.69 122.073C444.007 122.09 443.34 122.122 442.688 122.171C442.037 122.22 441.378 122.285 440.711 122.366C440.044 122.464 439.336 122.61 438.587 122.806C438.782 120.787 438.961 118.72 439.124 116.604C439.303 114.472 439.466 112.373 439.612 110.306C439.759 108.222 439.881 106.204 439.979 104.251C440.092 102.298 440.182 100.491 440.247 98.8311C440.328 97.1546 440.385 95.6572 440.418 94.3389C440.467 93.0205 440.491 91.9544 440.491 91.1406C440.491 90.1803 440.442 89.3991 440.345 88.7969C440.247 88.1947 440.068 87.7227 439.808 87.3809C439.547 87.0391 439.181 86.8112 438.709 86.6973C438.253 86.5671 437.659 86.502 436.927 86.502H436.023V85.3545C436.805 85.3219 437.537 85.2731 438.221 85.208C438.921 85.1266 439.596 85.0371 440.247 84.9395C440.914 84.8255 441.582 84.6953 442.249 84.5488C442.916 84.4023 443.624 84.2396 444.373 84.0605C444.178 86.1276 443.999 88.2598 443.836 90.457C443.673 92.6543 443.527 94.8271 443.396 96.9756C443.266 99.124 443.152 101.207 443.055 103.226C442.957 105.228 442.876 107.083 442.811 108.792C442.762 110.485 442.721 111.99 442.688 113.309C442.656 114.627 442.64 115.66 442.64 116.409ZM454.456 116.409C454.456 117.337 454.489 118.094 454.554 118.68C454.635 119.266 454.79 119.721 455.018 120.047C455.245 120.356 455.571 120.568 455.994 120.682C456.417 120.796 456.971 120.853 457.654 120.853H458.704V122C457.923 122.033 457.19 122.057 456.507 122.073C455.823 122.09 455.156 122.122 454.505 122.171C453.854 122.22 453.195 122.285 452.527 122.366C451.86 122.464 451.152 122.61 450.403 122.806C450.599 120.787 450.778 118.72 450.94 116.604C451.119 114.472 451.282 112.373 451.429 110.306C451.575 108.222 451.697 106.204 451.795 104.251C451.909 102.298 451.998 100.491 452.063 98.8311C452.145 97.1546 452.202 95.6572 452.234 94.3389C452.283 93.0205 452.308 91.9544 452.308 91.1406C452.308 90.1803 452.259 89.3991 452.161 88.7969C452.063 88.1947 451.884 87.7227 451.624 87.3809C451.364 87.0391 450.997 86.8112 450.525 86.6973C450.07 86.5671 449.476 86.502 448.743 86.502H447.84V85.3545C448.621 85.3219 449.354 85.2731 450.037 85.208C450.737 85.1266 451.412 85.0371 452.063 84.9395C452.731 84.8255 453.398 84.6953 454.065 84.5488C454.733 84.4023 455.441 84.2396 456.189 84.0605C455.994 86.1276 455.815 88.2598 455.652 90.457C455.49 92.6543 455.343 94.8271 455.213 96.9756C455.083 99.124 454.969 101.207 454.871 103.226C454.773 105.228 454.692 107.083 454.627 108.792C454.578 110.485 454.537 111.99 454.505 113.309C454.472 114.627 454.456 115.66 454.456 116.409ZM472.059 101.492C470.854 101.492 469.788 101.761 468.86 102.298C467.933 102.835 467.151 103.551 466.517 104.446C465.898 105.341 465.426 106.375 465.101 107.547C464.775 108.702 464.612 109.907 464.612 111.16C464.612 112.348 464.759 113.528 465.052 114.7C465.345 115.872 465.792 116.93 466.395 117.874C467.013 118.802 467.794 119.559 468.738 120.145C469.699 120.714 470.838 120.999 472.156 120.999C473.328 120.999 474.37 120.779 475.281 120.34C476.193 119.9 476.966 119.274 477.601 118.46C478.235 117.646 478.715 116.653 479.041 115.481C479.383 114.31 479.554 112.999 479.554 111.551C479.554 110.477 479.407 109.354 479.114 108.182C478.821 106.993 478.366 105.903 477.747 104.91C477.145 103.917 476.372 103.104 475.428 102.469C474.484 101.818 473.361 101.492 472.059 101.492ZM461.023 112.454C461.023 110.908 461.3 109.394 461.854 107.913C462.407 106.432 463.204 105.114 464.246 103.958C465.288 102.802 466.557 101.875 468.055 101.175C469.552 100.459 471.253 100.101 473.157 100.101C474.964 100.101 476.502 100.353 477.771 100.857C479.041 101.362 480.075 102.054 480.872 102.933C481.67 103.795 482.247 104.804 482.605 105.96C482.98 107.116 483.167 108.344 483.167 109.646C483.167 111.404 482.858 113.064 482.239 114.627C481.621 116.189 480.766 117.557 479.676 118.729C478.585 119.884 477.308 120.804 475.843 121.487C474.378 122.155 472.799 122.488 471.106 122.488C469.153 122.488 467.526 122.212 466.224 121.658C464.938 121.089 463.904 120.34 463.123 119.412C462.358 118.484 461.813 117.418 461.487 116.214C461.178 115.009 461.023 113.756 461.023 112.454Z" fill="url(#paint2_linear_284_704)"/>
<path opacity="0.2" d="M95.72 395.92V402.4C102.04 402.96 108.92 403.28 116.92 403.28C124.28 403.28 133 402.72 138.44 402.32V395.76C132.68 396.4 124.6 396.88 116.92 396.88C108.84 396.88 101.48 396.56 95.72 395.92ZM98.92 428.16L92.44 427.52C91.72 430.72 90.84 434.48 90.84 438.64C90.84 448.72 100.28 454 116.52 454C127.88 454 138.04 452.8 143.8 451.28L143.72 444.4C137.64 446.32 127.32 447.52 116.36 447.52C103.56 447.52 97.32 443.36 97.32 437.2C97.32 434.24 97.96 431.28 98.92 428.16ZM192.76 392.64L185.64 389.76C184.68 392.16 183.64 394.08 182.76 396C178.36 403.68 160.84 436.48 155 452.64L161.88 455.04C163 451.12 166.36 441.6 168.84 436.88C171.88 430.56 177.96 424 184.36 424C187.96 424 190.04 426.16 190.2 429.6C190.44 434 190.36 440.16 190.6 444.88C190.84 449.6 193.64 454.96 202.2 454.96C213.8 454.96 220.52 446 224.76 433.12L219.4 428.8C217.4 437.36 212.12 448.4 203.16 448.4C199.72 448.4 197 446.64 196.76 442.64C196.44 438.72 196.6 432.64 196.44 427.92C196.2 421.6 192.36 418.16 187 418.16C183.16 418.16 179 419.68 175.16 423.12C179.24 415.36 186.6 402.08 190.2 396.56C191.08 395.04 192.04 393.6 192.76 392.64ZM257.4 398L257.48 404.48C266.2 405.44 281.72 405.44 290.28 404.48V398C282.36 399.2 266.12 399.52 257.4 398ZM260.52 430.64L254.76 430.08C253.88 433.92 253.48 436.8 253.48 439.44C253.48 446.96 259.48 451.44 272.84 451.44C281.16 451.44 287.88 450.8 292.84 449.76L292.68 443.04C286.28 444.56 280.04 445.2 272.92 445.2C261.96 445.2 259.4 441.6 259.4 437.92C259.4 435.76 259.8 433.52 260.52 430.64ZM242.2 391.84L235.08 391.28C235 393.04 234.76 395.04 234.52 396.88C233.56 403.52 230.92 417.2 230.92 428.96C230.92 439.84 232.28 449.04 233.88 454.72L239.56 454.32C239.48 453.44 239.4 452.32 239.32 451.52C239.32 450.56 239.48 449.04 239.72 447.92C240.44 444.08 243.4 435.68 245.4 430L242.04 427.36C240.68 430.64 238.84 435.44 237.48 439.04C237 435.12 236.76 431.76 236.76 427.92C236.76 418.88 239.24 404.64 240.76 397.2C241.08 395.76 241.72 393.2 242.2 391.84ZM326.84 389.36L319.64 389.04C319.8 391.2 319.64 393.12 319.32 395.68C318.36 403.36 314.12 423.2 308.04 435.12L313.96 437.2C314.76 435.84 315.48 434.72 316.44 433.52C321.72 427.2 330.6 423.92 340.12 423.92C349.48 423.92 354.36 428.56 354.36 434.48C354.36 447.68 336.44 450.8 317.88 448.24L319.56 454.64C343.88 457.2 360.92 451.04 360.92 434.32C360.92 424.96 353.48 418.48 340.76 418.48C332.44 418.48 325.24 420.48 318.28 425.36C321 417.92 324.2 402.48 325.32 396.08C325.8 394 326.2 391.52 326.84 389.36ZM301.96 399.6L302.04 405.84C306.6 406.24 311.72 406.64 317.16 406.64C328.12 406.64 344.44 405.04 355.8 403.04L355.64 396.88C343.08 399.68 327.32 400.88 317.08 400.88C312.28 400.88 306.2 400.32 301.96 399.6ZM396.84 404.72L396.92 410.8C401.56 411.12 405.72 411.28 410.36 411.28C419.72 411.28 429.48 410.64 437.96 409.2V403.04C429.88 404.72 420.04 405.44 410.44 405.44C405.72 405.44 401.4 405.2 396.84 404.72ZM424.84 390.4H417.64C417.88 391.84 417.96 393.92 417.96 395.36C417.96 398.16 418.04 403.2 418.04 408.72C418.04 419.28 419.08 434.24 419.08 440C419.08 445.36 417.16 448.72 410.44 448.72C404.6 448.72 400.68 446.56 400.68 442.4C400.68 438.56 404.84 435.92 410.84 435.92C421 435.92 429.08 441.36 437.48 449.2L440.92 443.92C434.2 437.84 424.84 431.04 411.4 431.04C400.84 431.04 394.92 436.32 394.92 443.04C394.92 450.24 400.76 454.56 411.48 454.56C422.28 454.56 425.32 448.16 425.32 441.6C425.32 433.36 424.12 420.88 424.12 408.56C424.12 403.84 424.2 398.16 424.36 395.2C424.44 393.68 424.6 392 424.84 390.4ZM385.4 390.96L378.36 390.32C378.28 392.08 378.12 394.16 377.8 396.08C376.84 402.64 374.12 417.92 374.12 429.68C374.12 440.48 375.64 449.28 377.16 455.04L382.84 454.56C382.76 453.76 382.68 452.56 382.6 451.76C382.52 450.88 382.68 449.28 382.92 448.16C383.72 444.24 386.68 436.08 388.68 430.48L385.4 427.92C384.04 431.2 382.04 436.08 380.76 439.76C380.2 435.84 379.96 432.48 379.96 428.56C379.96 419.6 382.36 403.76 383.96 396.32C384.28 394.88 384.92 392.24 385.4 390.96Z" fill="url(#paint3_linear_284_704)"/>
<path opacity="0.2" d="M1172.28 231V179.9C1172.28 173.833 1170.88 169.54 1168.08 167.02C1165.37 164.407 1160.8 163.1 1154.36 163.1C1149.69 163.1 1145.21 163.753 1140.92 165.06C1136.72 166.273 1132.71 168 1128.88 170.24V158.62C1131.59 157.22 1135.23 155.913 1139.8 154.7C1144.47 153.487 1149.69 152.88 1155.48 152.88C1160.43 152.88 1164.63 153.44 1168.08 154.56C1171.63 155.68 1174.24 157.733 1175.92 160.72C1179.19 162.213 1181.43 164.547 1182.64 167.72C1183.95 170.893 1184.6 174.72 1184.6 179.2V231H1172.28ZM1148.2 232.4C1139.99 232.4 1133.69 230.533 1129.3 226.8C1125.01 222.973 1122.86 217.513 1122.86 210.42C1122.86 202.673 1125.66 196.7 1131.26 192.5C1136.95 188.3 1146.15 185.827 1158.84 185.08L1174.8 184.1V194.46L1160.52 195.44C1151 196.093 1144.42 197.587 1140.78 199.92C1137.23 202.253 1135.46 205.66 1135.46 210.14C1135.46 214.34 1136.77 217.42 1139.38 219.38C1142.09 221.34 1145.82 222.32 1150.58 222.32C1152.17 222.32 1153.61 222.227 1154.92 222.04C1156.23 221.76 1157.49 221.433 1158.7 221.06L1160.66 230.44C1158.89 231.093 1156.93 231.56 1154.78 231.84C1152.73 232.213 1150.53 232.4 1148.2 232.4ZM1175.5 165.06L1168.5 158.48C1170.93 158.107 1173.21 157.173 1175.36 155.68C1177.51 154.187 1178.58 152.04 1178.58 149.24H1190.76C1190.76 152.133 1190.06 154.7 1188.66 156.94C1187.35 159.087 1185.53 160.86 1183.2 162.26C1180.87 163.567 1178.3 164.5 1175.5 165.06ZM1222.86 232.4C1219.22 232.4 1215.67 232.027 1212.22 231.28C1208.86 230.533 1205.26 229.133 1201.44 227.08L1205.36 217.56C1207.41 218.773 1209.74 219.847 1212.36 220.78C1214.97 221.62 1218 222.04 1221.46 222.04C1228.36 222.04 1233.73 219.52 1237.56 214.48C1241.48 209.347 1243.44 201.973 1243.44 192.36C1243.44 182.933 1241.43 175.747 1237.42 170.8C1233.5 165.76 1227.43 163.24 1219.22 163.24C1216.23 163.24 1213.2 163.567 1210.12 164.22C1207.04 164.873 1204.33 165.853 1202 167.16V156.66C1204.7 155.26 1207.64 154.28 1210.82 153.72C1214.08 153.16 1217.35 152.88 1220.62 152.88C1229.02 152.88 1235.83 154.56 1241.06 157.92C1246.28 161.187 1250.11 165.76 1252.54 171.64C1254.96 177.52 1256.18 184.427 1256.18 192.36C1256.18 204.68 1253.38 214.433 1247.78 221.62C1242.27 228.807 1233.96 232.4 1222.86 232.4ZM1236.15 142.1C1232.23 142.1 1229.1 141.54 1226.77 140.42C1224.44 139.3 1222.76 137.853 1221.73 136.08C1220.61 134.307 1220.05 132.44 1220.05 130.48C1220.05 129.08 1220.28 127.587 1220.75 126C1221.12 124.32 1221.64 122.967 1222.29 121.94L1232.79 123.76C1232.6 124.133 1232.42 124.787 1232.23 125.72C1232.04 126.56 1231.95 127.353 1231.95 128.1C1231.95 129.313 1232.32 130.387 1233.07 131.32C1233.82 132.16 1235.08 132.58 1236.85 132.58H1272.27V142.1H1236.15ZM1321.3 231V179.9C1321.3 173.833 1319.9 169.54 1317.1 167.02C1314.4 164.407 1309.82 163.1 1303.38 163.1C1298.72 163.1 1294.24 163.753 1289.94 165.06C1285.74 166.273 1281.73 168 1277.9 170.24V158.62C1280.61 157.22 1284.25 155.913 1288.82 154.7C1293.49 153.487 1298.72 152.88 1304.5 152.88C1309.45 152.88 1313.65 153.44 1317.1 154.56C1320.65 155.68 1323.26 157.733 1324.94 160.72C1328.21 162.213 1330.45 164.547 1331.66 167.72C1332.97 170.893 1333.62 174.72 1333.62 179.2V231H1321.3ZM1297.22 232.4C1289.01 232.4 1282.71 230.533 1278.32 226.8C1274.03 222.973 1271.88 217.513 1271.88 210.42C1271.88 202.673 1274.68 196.7 1280.28 192.5C1285.98 188.3 1295.17 185.827 1307.86 185.08L1323.82 184.1V194.46L1309.54 195.44C1300.02 196.093 1293.44 197.587 1289.8 199.92C1286.26 202.253 1284.48 205.66 1284.48 210.14C1284.48 214.34 1285.79 217.42 1288.4 219.38C1291.11 221.34 1294.84 222.32 1299.6 222.32C1301.19 222.32 1302.64 222.227 1303.94 222.04C1305.25 221.76 1306.51 221.433 1307.72 221.06L1309.68 230.44C1307.91 231.093 1305.95 231.56 1303.8 231.84C1301.75 232.213 1299.56 232.4 1297.22 232.4ZM1324.52 165.06L1317.52 158.48C1319.95 158.107 1322.24 157.173 1324.38 155.68C1326.53 154.187 1327.6 152.04 1327.6 149.24H1339.78C1339.78 152.133 1339.08 154.7 1337.68 156.94C1336.38 159.087 1334.56 160.86 1332.22 162.26C1329.89 163.567 1327.32 164.5 1324.52 165.06ZM1382.66 232.4C1375.19 232.4 1369.31 230.673 1365.02 227.22C1360.82 223.673 1357.83 218.913 1356.06 212.94C1354.38 206.967 1353.54 200.387 1353.54 193.2C1353.54 185.267 1354.33 178.733 1355.92 173.6C1357.6 168.373 1359.93 164.267 1362.92 161.28C1366 158.2 1369.64 156.053 1373.84 154.84C1378.13 153.533 1382.85 152.88 1387.98 152.88C1395.45 152.88 1401.51 154 1406.18 156.24C1410.94 158.387 1414.44 161.467 1416.68 165.48C1418.92 169.493 1420.04 174.3 1420.04 179.9V231H1407.72V181.02C1407.72 175.233 1406.27 170.847 1403.38 167.86C1400.49 164.78 1395.49 163.24 1388.4 163.24C1384.11 163.24 1380.23 164.033 1376.78 165.62C1373.42 167.207 1370.76 170.147 1368.8 174.44C1366.93 178.733 1366 185.033 1366 193.34C1366 198.753 1366.51 203.653 1367.54 208.04C1368.66 212.333 1370.57 215.74 1373.28 218.26C1375.99 220.78 1379.77 222.04 1384.62 222.04C1386.02 222.04 1387.33 221.947 1388.54 221.76C1389.75 221.573 1390.92 221.293 1392.04 220.92L1393.3 230.58C1391.81 231.233 1390.08 231.7 1388.12 231.98C1386.25 232.26 1384.43 232.4 1382.66 232.4ZM1359.45 142.1V136.64L1369.67 132.16H1418.95V142.1H1359.45ZM1407.33 136.64V120.82H1419.09V136.64H1407.33Z" fill="url(#paint4_linear_284_704)"/>
<path opacity="0.2" d="M60.5781 105.594C60.5781 102.905 60.4414 100.717 60.168 99.0312C59.9401 97.3451 59.4616 96.0234 58.7324 95.0664C58.0033 94.1094 56.9779 93.4714 55.6562 93.1523C54.3802 92.7878 52.7168 92.6055 50.666 92.6055H48.1367V89.3926C50.1419 89.3014 52.0104 89.1875 53.7422 89.0508C55.474 88.8685 57.2285 88.6406 59.0059 88.3672C60.8288 88.0938 62.7428 87.752 64.748 87.3418C66.7533 86.9316 69.0091 86.4076 71.5156 85.7695C71.3333 87.5013 71.1283 89.666 70.9004 92.2637C70.6725 94.8613 70.4219 97.7324 70.1484 100.877C69.9206 104.021 69.6699 107.371 69.3965 110.926C69.123 114.48 68.8724 118.081 68.6445 121.727C68.4167 125.327 68.1888 128.927 67.9609 132.527C67.7786 136.082 67.6191 139.432 67.4824 142.576C69.9889 140.525 72.3359 138.771 74.5234 137.312C76.7565 135.809 78.8984 134.578 80.9492 133.621C83.0456 132.618 85.1191 131.889 87.1699 131.434C89.2207 130.932 91.3398 130.682 93.5273 130.682C94.9401 130.682 96.5352 130.91 98.3125 131.365C100.135 131.775 101.844 132.641 103.439 133.963C105.035 135.285 106.379 137.153 107.473 139.568C108.612 141.938 109.182 145.083 109.182 149.002C109.182 151.554 109.068 154.22 108.84 157C108.658 159.78 108.43 162.537 108.156 165.271C107.928 167.96 107.701 170.581 107.473 173.133C107.29 175.639 107.199 177.918 107.199 179.969C107.199 181.746 107.336 183.204 107.609 184.344C107.928 185.438 108.407 186.326 109.045 187.01C109.729 187.648 110.594 188.081 111.643 188.309C112.691 188.536 113.967 188.65 115.471 188.65H119.23V192C116.861 192.091 114.65 192.16 112.6 192.205C110.549 192.296 108.589 192.41 106.721 192.547C104.852 192.684 103.029 192.866 101.252 193.094C99.5202 193.367 97.7656 193.755 95.9883 194.256C96.3984 191.613 96.8314 188.628 97.2871 185.301C97.7428 181.974 98.153 178.624 98.5176 175.252C98.9277 171.834 99.2467 168.507 99.4746 165.271C99.7025 162.036 99.8164 159.188 99.8164 156.727C99.8164 154.357 99.7025 152.033 99.4746 149.754C99.2923 147.475 98.7682 145.447 97.9023 143.67C97.082 141.847 95.806 140.389 94.0742 139.295C92.3424 138.201 89.9499 137.654 86.8965 137.654C85.1647 137.654 83.3646 137.973 81.4961 138.611C79.6732 139.249 77.8958 140.047 76.1641 141.004C74.4323 141.961 72.7917 143.032 71.2422 144.217C69.7383 145.402 68.4395 146.541 67.3457 147.635C67.209 149.822 67.0723 152.124 66.9355 154.539C66.8444 156.909 66.776 159.279 66.7305 161.648C66.6849 163.973 66.6393 166.251 66.5938 168.484C66.5938 170.672 66.5938 172.723 66.5938 174.637C66.5938 177.599 66.6621 179.992 66.7988 181.814C66.9811 183.637 67.3457 185.073 67.8926 186.121C68.485 187.169 69.3509 187.876 70.4902 188.24C71.6296 188.605 73.179 188.787 75.1387 188.787H78.4883V192C76.0273 192 73.7487 192.023 71.6523 192.068C69.556 192.16 67.5508 192.296 65.6367 192.479C63.7682 192.661 61.9681 192.889 60.2363 193.162C58.5501 193.481 56.8867 193.846 55.2461 194.256C55.8841 187.921 56.4538 181.655 56.9551 175.457C57.502 169.214 57.9805 163.198 58.3906 157.41C58.8008 151.577 59.1426 146.04 59.416 140.799C59.6895 135.512 59.9173 130.636 60.0996 126.17C60.2819 121.704 60.3958 117.739 60.4414 114.275C60.5326 110.766 60.5781 107.872 60.5781 105.594ZM166.809 156.043C161.932 156.043 157.01 155.861 152.043 155.496C147.076 155.132 141.903 154.699 136.525 154.197C136.252 156.339 136.115 158.39 136.115 160.35C136.161 165.363 136.799 169.487 138.029 172.723C139.26 175.958 140.878 178.533 142.883 180.447C144.934 182.316 147.258 183.615 149.855 184.344C152.453 185.073 155.165 185.438 157.99 185.438C159.768 185.438 161.454 185.324 163.049 185.096C164.689 184.822 166.33 184.412 167.971 183.865C169.611 183.318 171.275 182.612 172.961 181.746C174.693 180.835 176.516 179.718 178.43 178.396L180.207 181.062C175.65 184.936 171.115 187.967 166.604 190.154C162.137 192.296 157.352 193.367 152.248 193.367C148.146 193.367 144.455 192.615 141.174 191.111C137.938 189.562 135.181 187.511 132.902 184.959C130.669 182.361 128.938 179.376 127.707 176.004C126.522 172.586 125.93 169.008 125.93 165.271C125.93 160.395 126.75 155.861 128.391 151.668C130.077 147.43 132.333 143.761 135.158 140.662C138.029 137.563 141.333 135.125 145.07 133.348C148.807 131.57 152.727 130.682 156.828 130.682C160.975 130.682 164.416 131.388 167.15 132.801C169.93 134.168 172.141 135.945 173.781 138.133C175.467 140.32 176.652 142.736 177.336 145.379C178.065 147.977 178.43 150.506 178.43 152.967C178.43 153.468 178.43 153.924 178.43 154.334C178.43 154.744 178.384 155.177 178.293 155.633C174.328 155.906 170.5 156.043 166.809 156.043ZM154.436 134.715C152.111 134.715 150.015 135.148 148.146 136.014C146.324 136.88 144.683 138.064 143.225 139.568C141.812 141.027 140.604 142.758 139.602 144.764C138.645 146.723 137.87 148.797 137.277 150.984C140.513 151.076 143.225 151.144 145.412 151.189C147.645 151.235 149.536 151.258 151.086 151.258H157.854C159.449 151.258 161.066 151.235 162.707 151.189C164.348 151.144 166.262 151.076 168.449 150.984V150.301C168.449 147.84 168.107 145.652 167.424 143.738C166.74 141.779 165.783 140.138 164.553 138.816C163.322 137.495 161.841 136.492 160.109 135.809C158.378 135.079 156.486 134.715 154.436 134.715ZM204.064 176.346C204.064 178.943 204.156 181.062 204.338 182.703C204.566 184.344 204.999 185.62 205.637 186.531C206.275 187.397 207.186 187.99 208.371 188.309C209.556 188.628 211.105 188.787 213.02 188.787H215.959V192C213.771 192.091 211.721 192.16 209.807 192.205C207.893 192.251 206.024 192.342 204.201 192.479C202.378 192.615 200.533 192.798 198.664 193.025C196.796 193.299 194.813 193.709 192.717 194.256C193.264 188.605 193.765 182.817 194.221 176.893C194.722 170.923 195.178 165.044 195.588 159.256C195.998 153.423 196.34 147.771 196.613 142.303C196.932 136.834 197.183 131.775 197.365 127.127C197.593 122.433 197.753 118.24 197.844 114.549C197.98 110.857 198.049 107.872 198.049 105.594C198.049 102.905 197.912 100.717 197.639 99.0312C197.365 97.3451 196.864 96.0234 196.135 95.0664C195.406 94.1094 194.38 93.4714 193.059 93.1523C191.783 92.7878 190.119 92.6055 188.068 92.6055H185.539V89.3926C187.727 89.3014 189.777 89.1647 191.691 88.9824C193.651 88.7546 195.542 88.5039 197.365 88.2305C199.234 87.9115 201.102 87.5469 202.971 87.1367C204.839 86.7266 206.822 86.2708 208.918 85.7695C208.371 91.5573 207.87 97.5273 207.414 103.68C206.958 109.832 206.548 115.916 206.184 121.932C205.819 127.947 205.5 133.781 205.227 139.432C204.953 145.037 204.725 150.232 204.543 155.018C204.406 159.757 204.292 163.973 204.201 167.664C204.11 171.355 204.064 174.249 204.064 176.346ZM237.15 176.346C237.15 178.943 237.242 181.062 237.424 182.703C237.652 184.344 238.085 185.62 238.723 186.531C239.361 187.397 240.272 187.99 241.457 188.309C242.642 188.628 244.191 188.787 246.105 188.787H249.045V192C246.857 192.091 244.807 192.16 242.893 192.205C240.979 192.251 239.11 192.342 237.287 192.479C235.464 192.615 233.618 192.798 231.75 193.025C229.882 193.299 227.899 193.709 225.803 194.256C226.35 188.605 226.851 182.817 227.307 176.893C227.808 170.923 228.264 165.044 228.674 159.256C229.084 153.423 229.426 147.771 229.699 142.303C230.018 136.834 230.269 131.775 230.451 127.127C230.679 122.433 230.839 118.24 230.93 114.549C231.066 110.857 231.135 107.872 231.135 105.594C231.135 102.905 230.998 100.717 230.725 99.0312C230.451 97.3451 229.95 96.0234 229.221 95.0664C228.492 94.1094 227.466 93.4714 226.145 93.1523C224.868 92.7878 223.205 92.6055 221.154 92.6055H218.625V89.3926C220.812 89.3014 222.863 89.1647 224.777 88.9824C226.737 88.7546 228.628 88.5039 230.451 88.2305C232.32 87.9115 234.188 87.5469 236.057 87.1367C237.925 86.7266 239.908 86.2708 242.004 85.7695C241.457 91.5573 240.956 97.5273 240.5 103.68C240.044 109.832 239.634 115.916 239.27 121.932C238.905 127.947 238.586 133.781 238.312 139.432C238.039 145.037 237.811 150.232 237.629 155.018C237.492 159.757 237.378 163.973 237.287 167.664C237.196 171.355 237.15 174.249 237.15 176.346ZM286.438 134.578C283.065 134.578 280.08 135.33 277.482 136.834C274.885 138.338 272.697 140.343 270.92 142.85C269.188 145.356 267.867 148.25 266.955 151.531C266.044 154.767 265.588 158.139 265.588 161.648C265.588 164.975 265.998 168.279 266.818 171.561C267.639 174.842 268.892 177.804 270.578 180.447C272.31 183.045 274.497 185.164 277.141 186.805C279.829 188.4 283.02 189.197 286.711 189.197C289.992 189.197 292.909 188.582 295.461 187.352C298.013 186.121 300.178 184.367 301.955 182.088C303.732 179.809 305.077 177.029 305.988 173.748C306.945 170.467 307.424 166.798 307.424 162.742C307.424 159.734 307.014 156.59 306.193 153.309C305.373 149.982 304.097 146.928 302.365 144.148C300.679 141.368 298.514 139.09 295.871 137.312C293.228 135.49 290.083 134.578 286.438 134.578ZM255.539 165.271C255.539 160.942 256.314 156.704 257.863 152.557C259.413 148.41 261.646 144.718 264.562 141.482C267.479 138.247 271.034 135.649 275.227 133.689C279.419 131.684 284.182 130.682 289.514 130.682C294.572 130.682 298.879 131.388 302.434 132.801C305.988 134.214 308.882 136.15 311.115 138.611C313.348 141.027 314.966 143.852 315.969 147.088C317.017 150.324 317.541 153.764 317.541 157.41C317.541 162.332 316.675 166.98 314.943 171.355C313.212 175.73 310.819 179.559 307.766 182.84C304.712 186.076 301.135 188.65 297.033 190.564C292.932 192.433 288.511 193.367 283.771 193.367C278.303 193.367 273.745 192.592 270.1 191.043C266.499 189.448 263.605 187.352 261.418 184.754C259.276 182.156 257.749 179.171 256.838 175.799C255.972 172.426 255.539 168.917 255.539 165.271Z" fill="url(#paint5_linear_284_704)"/>
<defs>
<linearGradient id="paint0_linear_284_704" x1="838.877" y1="547" x2="929.035" y2="484.05" gradientUnits="userSpaceOnUse">
<stop stop-color="#5E60CE"/>
<stop offset="1" stop-color="#80FFDB"/>
</linearGradient>
<linearGradient id="paint1_linear_284_704" x1="1066.01" y1="484" x2="1351.14" y2="287.092" gradientUnits="userSpaceOnUse">
<stop stop-color="#5E60CE"/>
<stop offset="1" stop-color="#80FFDB"/>
</linearGradient>
<linearGradient id="paint2_linear_284_704" x1="396.778" y1="137" x2="486.62" y2="74.8975" gradientUnits="userSpaceOnUse">
<stop stop-color="#5E60CE"/>
<stop offset="1" stop-color="#80FFDB"/>
</linearGradient>
<linearGradient id="paint3_linear_284_704" x1="113.346" y1="475" x2="249.666" y2="254.331" gradientUnits="userSpaceOnUse">
<stop stop-color="#5E60CE"/>
<stop offset="1" stop-color="#80FFDB"/>
</linearGradient>
<linearGradient id="paint4_linear_284_704" x1="1147.21" y1="271" x2="1407.06" y2="64.602" gradientUnits="userSpaceOnUse">
<stop stop-color="#5E60CE"/>
<stop offset="1" stop-color="#80FFDB"/>
</linearGradient>
<linearGradient id="paint5_linear_284_704" x1="75.1605" y1="232" x2="324.723" y2="59.493" gradientUnits="userSpaceOnUse">
<stop stop-color="#5E60CE"/>
<stop offset="1" stop-color="#80FFDB"/>
</linearGradient>
</defs>
</svg>
