<svg width="26" height="21" viewBox="0 0 26 21" fill="none" xmlns="http://www.w3.org/2000/svg">
<path d="M23.6364 0.590909C22.3245 0.177273 20.8827 0 19.5 0C17.1955 0 14.7136 0.472727 13 1.77273C11.2864 0.472727 8.80455 0 6.5 0C4.19545 0 1.71364 0.472727 0 1.77273V19.0864C0 19.3818 0.295455 19.6773 0.590909 19.6773C0.709091 19.6773 0.768182 19.6182 0.886364 19.6182C2.48182 18.85 4.78636 18.3182 6.5 18.3182C8.80455 18.3182 11.2864 18.7909 13 20.0909C14.5955 19.0864 17.4909 18.3182 19.5 18.3182C21.45 18.3182 23.4591 18.6727 25.1136 19.5591C25.2318 19.6182 25.2909 19.6182 25.4091 19.6182C25.7045 19.6182 26 19.3227 26 19.0273V1.77273C25.2909 1.24091 24.5227 0.886364 23.6364 0.590909ZM23.6364 16.5455C22.3364 16.1318 20.9182 15.9545 19.5 15.9545C17.4909 15.9545 14.5955 16.7227 13 17.7273V4.13636C14.5955 3.13182 17.4909 2.36364 19.5 2.36364C20.9182 2.36364 22.3364 2.54091 23.6364 2.95455V16.5455Z" fill="#037171"/>
<path d="M19.4998 7.0909C20.5398 7.0909 21.5444 7.19727 22.4544 7.39818V5.60181C21.5207 5.42454 20.5162 5.31818 19.4998 5.31818C17.4907 5.31818 15.6707 5.6609 14.1816 6.29909V8.2609C15.5171 7.50454 17.3725 7.0909 19.4998 7.0909Z" fill="#037171"/>
<path d="M14.1816 9.44273V11.4045C15.5171 10.6482 17.3725 10.2345 19.4998 10.2345C20.5398 10.2345 21.5444 10.3409 22.4544 10.5418V8.74546C21.5207 8.56819 20.5162 8.46182 19.4998 8.46182C17.4907 8.46182 15.6707 8.81637 14.1816 9.44273Z" fill="#037171"/>
<path d="M19.4998 11.6173C17.4907 11.6173 15.6707 11.96 14.1816 12.5982V14.56C15.5171 13.8036 17.3725 13.39 19.4998 13.39C20.5398 13.39 21.5444 13.4964 22.4544 13.6973V11.9009C21.5207 11.7118 20.5162 11.6173 19.4998 11.6173Z" fill="#037171"/>
</svg>
